<?xml version="1.0" encoding="UTF-8"?>
<svg id="Ebene_1" xmlns="http://www.w3.org/2000/svg" version="1.1" viewBox="0 0 63 47">
  <!-- Generator: Adobe Illustrator 29.1.0, SVG Export Plug-In . SVG Version: 2.1.0 Build 142)  -->
  <defs>
    <style>
      .st0 {
        fill: #cde052;
        stroke: #000;
        stroke-width: 3px;
      }
    </style>
  </defs>
  <path class="st0" d="M12.1,4.1c1.7-1.4,5,.7,9.3.3,3.5-.3,4.7-2.9,8.7-2.6,4.5.3,7.7,2.5,11.4,3.3,5.1,1.1,12.4-1,12.8.5.7,2.6-.8,6.7-1.1,10.7-.2,3,1.6,7.8,1,9.7-.6,2.2-2.3,5.8-2.3,9.8,0,4.2,1.5,8.5.3,8.5-1.4,0-4.9-1.6-8.5-1.5-2.7.1-5.2,2.2-8.2.9-3.2-1.5-4.2.8-8.5,1-4.8.2-15.8-.6-16.9-.6-1.4,0,1.9-2.6,1.9-7.6,0-2.5-1.5-6.9-.6-10.3,1.1-4.1-1.8-8.8-1.8-12.8,0-4,2.9-7.3,2.6-9.2Z"/>
  <g>
    <path d="M20.1,23c-.7,0-1.3,0-1.9-.3s-1.1-.4-1.5-.7l.9-2.6c.4.2.7.4,1.1.5.3.1.6.2,1,.2.4,0,.8-.1,1-.4.3-.3.4-.7.4-1.2v-6.9h3.3v7.7c0,.8-.2,1.4-.5,2-.3.6-.8,1-1.4,1.4s-1.4.5-2.3.5Z"/>
    <path d="M25.2,22.8l4.1-11.3h3.9l4.1,11.3h-3.7l-.6-2h-3.6l-.6,2h-3.6ZM30.1,18.1h2.2l-1.1-3.2-1.1,3.2Z"/>
    <path d="M47.6,23.8l-1.3-1.4c-.5.2-.9.4-1.4.5s-1,.2-1.5.2c-.8,0-1.6-.1-2.3-.4-.7-.3-1.3-.7-1.9-1.2-.5-.5-1-1.1-1.3-1.9-.3-.7-.5-1.5-.5-2.4s.2-1.6.5-2.3.7-1.3,1.3-1.9c.5-.5,1.2-.9,1.9-1.2.7-.3,1.5-.4,2.4-.4s1.6.1,2.4.4c.7.3,1.4.7,1.9,1.2.6.5,1,1.1,1.3,1.8.3.7.5,1.5.5,2.3s-.1,1.4-.4,2.1c-.2.6-.6,1.2-1,1.7l1.2,1.3-1.8,1.6ZM43.5,20.3c.2,0,.3,0,.5,0,.2,0,.3,0,.5-.1l-1.3-1.5,1.7-1.4,1.3,1.4c0-.2.2-.4.2-.7s0-.5,0-.8c0-.6-.1-1.2-.4-1.6-.3-.5-.6-.8-1.1-1.1-.4-.2-1-.4-1.5-.4s-.8,0-1.2.2c-.3.1-.7.3-.9.6-.3.3-.4.6-.6,1-.1.4-.2.8-.2,1.3s.1,1.2.4,1.6c.2.5.6.9,1,1.1.4.3.9.4,1.5.4Z"/>
  </g>
  <g>
    <path d="M42.1,24c.9,0,1.8.1,2.7.4s1.6.7,2.2,1.2l-1.6,2.5c-.2-.3-.5-.5-.9-.7-.4-.2-.8-.4-1.2-.5-.4-.1-.9-.2-1.3-.2-.4,0-.8,0-1.1.2-.3.1-.4.3-.4.5s.1.4.3.6.6.3,1.2.5l.9.2c1.3.3,2.2.8,2.7,1.4s.8,1.3.8,2.2c0,.5-.1,1-.3,1.5-.2.5-.6.9-1,1.2-.4.3-.9.6-1.5.8-.6.2-1.2.3-1.8.3-.9,0-1.8-.1-2.6-.4s-1.5-.7-2-1.1l1.6-2.4c.2.2.4.4.8.6.3.2.6.3,1,.4.4.1.7.1,1.1.1.3,0,.6,0,.8-.1.2,0,.4-.2.5-.3.1-.1.2-.3.2-.4s0-.3-.2-.3c0,0-.3-.2-.5-.3-.2,0-.5-.2-.9-.3l-.9-.2c-1.3-.4-2.2-.8-2.7-1.4-.6-.5-.8-1.2-.8-2.1,0-.8.2-1.5.6-2,.4-.6,1-1.1,1.7-1.4.7-.3,1.6-.5,2.5-.5Z"/>
    <path d="M33.9,24.2v8.6s3,0,3,0v3.1s-9.4,0-9.4,0v-3.1s3,0,3,0v-8.6s3.4,0,3.4,0Z"/>
    <path d="M21.2,24c1.1,0,2.1.2,2.9.7.8.4,1.4,1.1,1.8,1.8s.6,1.7.6,2.7v6.7s-3.4,0-3.4,0v-6.9c0-.6-.2-1.1-.5-1.4-.3-.3-.8-.5-1.4-.5-.6,0-1,.2-1.3.5-.3.3-.5.8-.5,1.4v6.9s-3.4,0-3.4,0v-6.7c0-1,.2-1.9.6-2.7.4-.8,1-1.4,1.7-1.8.8-.4,1.7-.7,2.9-.7Z"/>
  </g>
</svg>