<svg width="25" height="25" viewBox="0 0 25 25" fill="none" xmlns="http://www.w3.org/2000/svg">
<g clip-path="url(#clip0_1060_543)">
<path d="M22.3751 7.08252H15.3751V5.08252H22.3751V7.08252ZM24.1011 17.0825C23.6591 18.3795 22.0721 20.0825 19.0001 20.0825C15.9261 20.0825 13.4361 18.3535 13.4361 14.4075C13.4361 10.4975 15.7611 8.48752 18.9021 8.48752C21.9841 8.48752 23.8661 10.2695 24.2771 12.9135C24.3551 13.4195 24.3861 14.1015 24.3721 15.0535H16.3451C16.4751 18.2645 19.8281 18.3655 20.9331 17.0825H24.1011ZM16.4151 13.0825H21.3801C21.2751 11.5355 20.2441 10.8635 18.9031 10.8635C17.4371 10.8635 16.6261 11.6315 16.4151 13.0825ZM6.84112 20.0705H0.375122V5.10352H7.32812C12.8041 5.18452 12.9081 10.5475 10.0481 12.0095C13.5091 13.2695 13.6251 20.0705 6.84112 20.0705ZM3.37512 11.0825H6.95912C9.46712 11.0825 9.86512 8.08252 6.64712 8.08252H3.37512V11.0825ZM6.76612 14.0825H3.37512V17.0985H6.71612C9.77112 17.0985 9.58412 14.0825 6.76612 14.0825Z" fill="white"/>
</g>
<defs>
<clipPath id="clip0_1060_543">
<rect width="24" height="24" fill="white" transform="translate(0.375122 0.0825195)"/>
</clipPath>
</defs>
</svg>
