<svg width="39" height="41" viewBox="0 0 39 41" fill="none" xmlns="http://www.w3.org/2000/svg">
<path d="M2.90029 16.3144C10.086 -10.1566 38.3241 5.14278 36.6008 21.7016C33.8193 48.4299 -4.28545 42.1699 2.90029 16.3144Z" fill="#FF2A83"/>
<path fill-rule="evenodd" clip-rule="evenodd" d="M3.09315 15.7847C1.43304 21.758 4.1652 27.4379 6.39368 30.6927C8.65031 33.9886 12.3123 36.1005 16.3331 36.7527C20.3527 37.4047 24.6055 36.5758 27.984 34.1477C31.3254 31.7463 34.8576 27.6729 35.5 21.5C36.2402 14.387 29.5974 5.87043 22.5 3.5C14.5236 0.836001 5.25231 7.83071 3.09315 15.7847ZM23.725 0.974805C32.1123 3.77604 39.5731 12.4628 38.5901 21.9087C37.8418 29.0998 34.6794 34.2617 30.3184 37.3959C25.9946 40.5033 20.6487 41.505 15.6927 40.7011C10.7378 39.8974 6.0471 37.2669 3.09315 32.9525C0.111885 28.5981 -0.958788 22.7365 0.971763 15.7847C2.86686 8.80779 6.23995 4.2753 10.4641 1.91428C14.6847 -0.444771 19.4373 -0.45724 23.725 0.974805Z" fill="black"/>
<path fill-rule="evenodd" clip-rule="evenodd" d="M32.6104 16.5061C33.1593 16.5671 33.5549 17.0615 33.4939 17.6104C31.95 31.5053 23.1815 36.2723 17.9904 35.6955C8.99411 34.6959 5.67544 27.0383 6.19216 22.79C6.25885 22.2418 6.75735 21.8514 7.30559 21.9181C7.85383 21.9848 8.24422 22.4833 8.17753 23.0315C7.77898 26.3083 10.4496 32.8453 18.2113 33.7077C22.0201 34.1309 30.05 30.4946 31.5061 17.3895C31.5671 16.8406 32.0615 16.4451 32.6104 16.5061ZM27.2706 24.9975C29.0412 23.3413 27.151 28.9989 23.5 31C19.849 33.0011 17.1297 33.0636 15.0094 31.8607C12.9715 30.7045 11.8 28.8359 11.3441 28.0131C11.0765 27.53 11.2511 26.9214 11.7342 26.6537C12.2173 26.386 12.8259 26.5607 13.0936 27.0438C13.4905 27.7602 14.4407 29.2386 15.9963 30.1211C17.4695 30.957 19.6327 31.3445 22.7216 29.6515C24.1191 28.8855 25.5 26.6537 27.2706 24.9975Z" fill="black"/>
</svg>
