<svg width="31" height="37" viewBox="0 0 31 37" fill="none" xmlns="http://www.w3.org/2000/svg">
<path d="M11.4642 31.4316C-4.32229 21.5113 11.0787 1.16419 21.491 5.13804C38.2978 11.5523 26.8511 41.2558 11.4642 31.4316Z" fill="#CDE052"/>
<path fill-rule="evenodd" clip-rule="evenodd" d="M11.9962 30.585L12.0023 30.5888C18.5598 34.7756 25.9667 30.1061 28.5 23.5C31.1047 16.7077 28.4738 8.87341 21.1344 6.07235C8.55061 1.26975 0.885858 23.6031 11.9962 30.585ZM12.8197 5.3043C15.6511 3.70455 18.8829 3.07234 21.8476 4.20381C26.3606 5.92621 29.0049 9.23932 30.1371 13.0492C31.2595 16.8265 30.8917 21.0614 29.484 24.7324C28.0788 28.3968 25.5896 31.6182 22.3368 33.2624C19.0268 34.9355 15.052 34.9076 10.9291 32.2765C6.77609 29.6658 4.59485 26.3083 3.92416 22.7653C3.25844 19.2487 4.10185 15.6649 5.77505 12.5959C7.44743 9.52834 9.98429 6.90635 12.8197 5.3043Z" fill="black"/>
<path fill-rule="evenodd" clip-rule="evenodd" d="M20.7626 9.32464C21.1356 8.91738 21.7682 8.88964 22.1755 9.26269C22.8276 9.86004 23.7461 10.9312 24.5732 12.2364C25.3996 13.5407 26.18 15.1492 26.4839 16.8213C27.1331 20.3927 25.7455 25.754 22.6451 28.054C18 31.5 17.301 30.4775 20.5 28.054C24 25.4025 25.1262 20.5353 24.5162 17.179C24.2748 15.851 23.6324 14.4883 22.8838 13.3069C22.1358 12.1265 21.3269 11.1977 20.8246 10.7375C20.4173 10.3645 20.3896 9.7319 20.7626 9.32464Z" fill="black"/>
</svg>
