<svg width="38" height="35" viewBox="0 0 38 35" fill="none" xmlns="http://www.w3.org/2000/svg">
<path d="M4.3564 15.1037C11.1948 -6.35476 38.0676 6.04754 36.4277 19.4708C33.7806 41.1378 -2.48195 36.0632 4.3564 15.1037Z" fill="#35C8BF"/>
<path fill-rule="evenodd" clip-rule="evenodd" d="M34.3707 24.6737C34.6028 25.349 34.5047 26.0364 34.1699 26.6734C33.8765 27.2314 33.386 27.5193 32.817 27.5404C32.3093 27.5592 31.7805 27.3669 31.2891 27.1088C30.2954 26.587 29.1024 25.604 27.8338 24.3906C27.3118 23.8913 26.7676 23.3438 26.2083 22.759C24.5391 22.4852 22.887 22.3006 21.6235 22.1594C21.1587 22.1074 20.7465 22.0613 20.4054 22.0189C18.697 21.8062 15.4071 21.4842 12.4259 21.9025C12.0013 21.9621 11.5876 22.0361 11.1893 22.1261C9.98302 24.3065 8.69595 26.1024 7.70074 27.0562C7.41715 27.328 7.12369 27.5644 6.83468 27.7157C6.58541 27.8461 6.13014 28.0235 5.65768 27.788C5.12989 27.5249 4.98511 26.9671 4.94947 26.6159C4.91116 26.2384 4.95826 25.7954 5.05335 25.3163C5.3928 23.6063 6.40499 22.4211 7.69969 21.625C8.4243 21.1795 9.24677 20.8489 10.1134 20.6053C10.1598 20.5175 10.206 20.4291 10.2522 20.3399C11.5453 17.8411 12.6845 14.9134 13.1483 12.1619C13.5489 9.78481 13.4254 7.67266 12.6026 6.06569C12.5828 6.03874 12.5632 6.01201 12.5437 5.98552C11.4177 4.44997 13.6637 4.76742 13.9406 5.14402C15.4258 7.16342 17.8845 10.4182 20.5856 13.7643C22.6796 16.3582 24.9056 18.9901 26.93 21.1413C27.6823 21.2733 28.4323 21.4238 29.1459 21.5964C30.691 21.9702 32.1878 22.4737 33.1845 23.1931C33.6879 23.5564 34.1519 24.0373 34.3707 24.6737ZM29.1263 23.3516C30.266 24.4218 31.2293 25.1813 31.9531 25.5613C32.3459 25.7676 32.5829 25.8157 32.6974 25.8115C32.7267 25.8104 32.7362 25.8104 32.7416 25.8053C32.7459 25.8012 32.7475 25.7938 32.7549 25.7799C32.9156 25.4742 32.8905 25.3096 32.8576 25.214C32.8114 25.0796 32.6723 24.8707 32.3191 24.6157C31.6463 24.1301 30.5203 23.7062 29.1263 23.3516ZM24.3548 20.7513C22.7066 18.9102 20.997 16.8663 19.3819 14.8657C17.7765 12.8768 16.2566 10.9208 14.9725 9.23296C15.0168 10.3145 14.9243 11.4294 14.7381 12.5342C14.2998 15.1348 13.3212 17.8201 12.1909 20.1819C15.3682 19.7425 18.804 20.0859 20.5287 20.3006C20.8429 20.3397 21.2327 20.3832 21.6793 20.433C22.438 20.5176 23.3605 20.6205 24.3548 20.7513ZM8.68909 23.0481C8.64038 23.0762 8.59233 23.1048 8.54496 23.1339C7.53947 23.7521 6.87402 24.5813 6.64085 25.7049C7.20612 25.1518 7.92737 24.2284 8.68909 23.0481ZM6.01623 26.1828C6.01623 26.1828 6.02195 26.1801 6.03219 26.1779C6.02114 26.1822 6.01623 26.1828 6.01623 26.1828Z" fill="black"/>
<path fill-rule="evenodd" clip-rule="evenodd" d="M4.94118 14.6434C3.37478 19.4443 5.14475 24.0796 7.27948 26.7355C9.46454 29.454 13.0527 31.2353 17.0403 31.7863C21.0204 32.3362 25.2281 31.634 28.555 29.5973C35.0385 25.6282 36.6239 15.3076 31.4996 9.49988C23.2565 0.157365 8.7526 2.68331 4.94118 14.6434ZM34.1948 9.11551C36.7861 12.0525 38.3927 15.7553 37.9166 19.6527C37.198 25.5348 34.1671 29.6792 30.1213 32.1559C26.1182 34.6066 21.1913 35.3883 16.6297 34.7581C12.0755 34.1288 7.7148 32.0657 4.94118 28.615C2.11806 25.1026 1.07817 20.3199 2.92874 14.6434C4.74396 8.95099 7.95239 5.3414 11.8382 3.4913C15.6931 1.65594 20.0298 1.63953 23.9818 2.76387C27.9304 3.88722 31.6012 6.17603 34.1948 9.11551Z" fill="black"/>
</svg>
