<svg width="37" height="34" viewBox="0 0 37 34" fill="none" xmlns="http://www.w3.org/2000/svg">
<path d="M2.85671 13.6038C9.69506 -7.85464 36.5679 4.54766 34.928 17.9709C32.2809 39.6379 -3.98164 34.5633 2.85671 13.6038Z" fill="#35C8BF"/>
<path fill-rule="evenodd" clip-rule="evenodd" d="M3.44155 13.1435C1.87515 17.9445 3.64512 22.5798 5.77985 25.2357C7.9649 27.9542 11.5531 29.7355 15.5407 30.2864C19.5208 30.8363 23.7285 30.1341 27.0553 28.0974C33.5389 24.1283 35.1243 13.8077 30 8C21.7569 -1.34251 7.25296 1.18343 3.44155 13.1435ZM32.6951 7.61563C35.2865 10.5526 36.8931 14.2555 36.417 18.1528C35.6983 24.035 32.6674 28.1793 28.6217 30.6561C24.6185 33.1068 19.6916 33.8885 15.13 33.2582C10.5759 32.6289 6.21516 30.5659 3.44155 27.1151C0.618425 23.6028 -0.421467 18.8201 1.42911 13.1435C3.24432 7.45112 6.45276 3.84153 10.3386 1.99142C14.1935 0.156064 18.5302 0.139653 22.4822 1.26399C26.4308 2.38734 30.1016 4.67615 32.6951 7.61563Z" fill="black"/>
<path fill-rule="evenodd" clip-rule="evenodd" d="M10.3744 18.0197C10.678 19.2663 11.2386 20.4644 12.192 21.4293C13.1378 22.3866 14.5272 23.1728 16.5935 23.5133C19.382 23.9728 20.4753 23.3376 21.5 22.5C22.5837 21.6141 23.6488 20.4248 24.114 19.5362C24.3702 19.0469 25.2677 17.7438 25.757 18C26.5 18.5 23.7829 22.36 23 23C21.4752 24.2464 19.5489 26.0272 16.2684 25.4867C13.8345 25.0857 12.045 24.1262 10.7693 22.835C9.50118 21.5515 8.79783 19.9986 8.43119 18.493C8 16.5 10 15.5 10.3744 18.0197ZM30.1293 13.5084C30.6769 13.5798 31.063 14.0817 30.9915 14.6293C30.2463 20.3427 27.7998 24.0175 24.8849 26.1971C21.9988 28.3553 18.7141 29.0014 16.3367 28.7764C7.88403 27.9764 4.52436 21.7819 5.05275 18.0814C5.13082 17.5346 5.63733 17.1547 6.18407 17.2328C6.73081 17.3108 7.11074 17.8173 7.03267 18.3641C6.69004 20.7637 9.03006 26.0759 16.5252 26.7853C18.4303 26.9656 21.2163 26.4431 23.6872 24.5954C26.1293 22.7693 28.3261 19.6009 29.0083 14.3706C29.0798 13.823 29.5816 13.437 30.1293 13.5084Z" fill="black"/>
</svg>
