<svg width="39" height="41" viewBox="0 0 39 41" fill="none" xmlns="http://www.w3.org/2000/svg">
<path d="M2.90029 16.3144C10.086 -10.1566 38.3241 5.14278 36.6008 21.7016C33.8193 48.4299 -4.28545 42.1699 2.90029 16.3144Z" fill="#FF2A83"/>
<path fill-rule="evenodd" clip-rule="evenodd" d="M4.5 13.5C1.79187 23.2443 2 34.1477 16.3331 36.7527C20.3527 37.4047 24.6055 36.5758 27.984 34.1477C31.3254 31.7463 33.9692 27.6675 34.6116 21.4946C36.546 2.90676 9.55504 -5.12185 4.5 13.5ZM23.725 0.974805C32.1123 3.77604 39.5731 12.4628 38.5901 21.9087C37.8418 29.0998 34.6794 34.2617 30.3184 37.3959C25.9946 40.5033 20.6487 41.505 15.6927 40.7011C10.7378 39.8974 6.0471 37.2669 3.09315 32.9525C0.111885 28.5981 -0.958788 22.7365 0.971763 15.7847C2.86686 8.80779 6.23995 4.2753 10.4641 1.91428C14.6847 -0.444771 19.4373 -0.45724 23.725 0.974805Z" fill="black"/>
<path fill-rule="evenodd" clip-rule="evenodd" d="M32.1107 19.0061C32.6596 19.0671 33.0552 19.5615 32.9942 20.1104C32.2117 27.1527 29.044 31.078 25.3609 33.1241C21.5 35 14 35 12.0002 33C12.0612 32.4511 15.0618 32.9451 15.6107 33.0061C17.7396 33.2426 21.2589 33.1151 24.3896 31.3758C27.4566 29.672 30.2889 26.3472 31.0064 19.8895C31.0674 19.3406 31.5618 18.9451 32.1107 19.0061Z" fill="black"/>
</svg>
