<svg width="83" height="76" viewBox="0 0 83 76" fill="none" xmlns="http://www.w3.org/2000/svg">
<path d="M80.4071 39.0635C80.4071 60.1148 58.801 75.0411 43.3541 75.0411C20.7088 75.0411 2.38089 55.1802 0.87807 33.8066C-0.315075 16.8373 11.3232 1.81494 33.9685 1.81494C56.6137 1.81494 79.625 15.4043 80.4071 39.0635Z" fill="#CDE052"/>
<path d="M40.7195 32.2274C31.8977 42.6863 29.2375 63.1871 29.0101 72.1302L33.8985 73.7217C33.9364 66.6355 36.2404 49.2798 45.1531 36.5473C54.0659 23.8147 64.5551 15.9327 68.6856 13.5832L64.7066 10.6276C58.7951 12.9012 51.7468 19.1538 40.7195 32.2274Z" fill="white"/>
<path d="M5.73346 28.6082C4.14135 26.3458 2.83556 22.9171 2.38167 21.4856L1.22949 27.6654C3.32437 29.7603 5.73346 31.9599 8.03783 35.3117C10.3422 38.6635 15.0557 47.7762 17.9885 56.0509C20.3347 62.6707 20.7816 66.2809 20.7118 67.2585L27.6249 71.2388C27.1012 70.1215 25.8024 67.2166 24.7968 64.5352C23.5399 61.1834 20.1881 50.709 15.7889 42.958C11.3896 35.207 7.7236 31.4363 5.73346 28.6082Z" fill="white"/>
<path d="M65.805 52.5824C68.4648 41.6108 74.6161 33.9289 77.9778 30.124L78.9674 32.7436C77.97 34.2951 74.7374 41.1454 71.4571 49.036C68.1767 56.9267 67.1789 62.0139 66.9573 64.5998L63.921 67.4328C64.1796 66.066 63.6959 61.2828 65.805 52.5824Z" fill="white"/>
<path fill-rule="evenodd" clip-rule="evenodd" d="M67.3962 13.3457C67.2557 13.3924 67.0451 13.4973 66.7812 13.6672C65.854 14.2652 64.0237 15.6793 61.898 17.4043C59.9588 18.977 57.7726 20.7993 55.7995 22.4862C52.7635 25.0833 50.236 27.353 49.8026 27.8096C47.0427 30.7727 44.5103 34.1124 42.3289 37.7466C41.4792 39.1617 40.6899 40.625 39.9539 42.1202C38.8596 44.3429 37.8864 46.64 37.0366 48.9799C35.6155 52.8949 34.5066 56.923 33.8288 60.9497C33.6206 62.1803 33.4608 63.4092 33.3446 64.6356C33.0686 67.5697 33.0419 70.4599 33.2041 73.2777C33.2041 73.4193 33.3179 73.5346 33.4608 73.5346C33.6012 73.5346 33.7174 73.4193 33.7174 73.2777C33.8748 70.5052 34.2766 67.6936 34.8214 64.8458C35.0465 63.6643 35.2983 62.4819 35.5695 61.2937C36.4507 57.4186 37.6225 53.5355 39.1114 49.7658C39.9975 47.5215 40.9901 45.3179 42.0699 43.1724C42.7938 41.7328 43.5588 40.3216 44.3553 38.9387C46.3987 35.3922 48.6744 32.0536 51.2407 29.1034C51.6402 28.6373 54.0176 26.3282 56.8333 23.6282C58.6999 21.8374 60.7505 19.8776 62.5735 18.1819C64.5539 16.3393 66.2462 14.8075 67.1202 14.1526C67.3429 13.9846 67.476 13.8599 67.5414 13.8575C67.7496 13.85 67.8416 13.8263 67.8682 13.8062C67.9506 13.7457 68.0232 13.6645 67.982 13.5106C67.9748 13.4813 67.9409 13.42 67.8925 13.2997C67.8465 13.1658 67.7012 13.0951 67.5656 13.1418C67.4736 13.1743 67.4107 13.2547 67.3962 13.3457ZM67.4422 13.5413C67.4083 13.6069 67.3962 13.6648 67.4688 13.6365C67.493 13.627 67.4688 13.5895 67.4422 13.5413Z" fill="black"/>
<path fill-rule="evenodd" clip-rule="evenodd" d="M64.5614 10.1374C61.4674 11.3656 58.6517 13.0531 56.0854 14.9424C51.8365 18.0692 48.2801 21.7246 45.1642 24.5645C42.1234 27.3947 39.4095 30.8386 37.1216 34.7066C36.2525 36.1742 35.4535 37.7067 34.7127 39.2823C33.6281 41.5951 32.6718 44.0045 31.8486 46.4633C30.4783 50.5515 29.4349 54.7701 28.803 58.9308C28.6093 60.2127 28.4592 61.4874 28.3551 62.7524C28.0961 65.8472 28.0815 68.8521 28.2389 71.7029C28.2389 71.8448 28.3527 71.9598 28.4955 71.9598C28.636 71.9598 28.7522 71.8448 28.7522 71.7029C28.9071 68.8923 29.2969 65.959 29.8295 62.9444C30.0474 61.7203 30.2895 60.4875 30.5461 59.2444C31.3838 55.2259 32.4975 51.1453 33.9404 47.1954C34.8023 44.8366 35.7731 42.5253 36.8456 40.2948C37.5695 38.7848 38.3442 37.3143 39.1553 35.8878C41.2785 32.1607 43.6995 28.7577 46.5103 25.9648C49.4446 22.9904 52.7953 19.2131 56.8093 15.8653C59.2061 13.8668 61.8257 12.0142 64.7672 10.6081C64.8979 10.5512 64.9585 10.3999 64.9004 10.2698C64.8447 10.1401 64.6921 10.0805 64.5614 10.1374Z" fill="black"/>
<path fill-rule="evenodd" clip-rule="evenodd" d="M14.1979 7.55001C14.1373 7.46576 14.0308 7.42315 13.9243 7.45099C13.8613 7.46552 13.6023 7.72796 13.8952 7.97127C14.0042 8.06279 14.2463 8.24388 14.5949 8.51455C15.8006 9.45124 18.2773 11.4827 20.8121 14.5451C22.6085 16.7174 24.4339 19.4084 25.8236 22.6225C27.3101 25.9694 29.4938 31.4515 31.6849 37.6774C32.5516 40.1383 33.4352 42.7095 34.2487 45.3222C35.0525 47.8924 35.8006 50.4969 36.4325 53.0649C37.3307 56.7175 37.9601 60.2916 38.2555 63.5701C38.6211 67.6355 38.4758 71.2404 37.2653 74.0093C37.1999 74.1359 37.2508 74.2904 37.3791 74.3541C37.505 74.4175 37.6599 74.3664 37.7229 74.2398C39.2917 71.4912 39.9817 67.7556 39.9163 63.4825C39.8631 60.0924 39.3038 56.3826 38.5048 52.5918C37.948 49.9531 37.2556 47.2765 36.4736 44.6448C35.6844 41.9822 34.8152 39.3614 33.8928 36.8792C31.5711 30.6221 29.0338 25.2111 27.4069 21.8846C25.7655 18.6162 23.7197 15.9045 21.703 13.7587C18.9188 10.7964 16.2339 8.91232 14.9363 8.04245C14.5779 7.80156 14.3262 7.64177 14.2124 7.55994L14.1979 7.55001Z" fill="black"/>
<path fill-rule="evenodd" clip-rule="evenodd" d="M14.1979 7.55001C14.1373 7.46576 14.0308 7.42315 13.9243 7.45099C13.8613 7.46552 13.6023 7.72796 13.8952 7.97127C14.0042 8.06279 14.2463 8.24388 14.5949 8.51455C15.8006 9.45124 18.2773 11.4827 20.8121 14.5451C22.6085 16.7174 24.4339 19.4084 25.8236 22.6225C27.3101 25.9694 29.4938 31.4515 31.6849 37.6774C32.5516 40.1383 33.4352 42.7095 34.2487 45.3222C35.0525 47.8924 35.8006 50.4969 36.4325 53.0649C37.3307 56.7175 37.9601 60.2916 38.2555 63.5701C38.6211 67.6355 38.4758 71.2404 37.2653 74.0093C37.1999 74.1359 37.2508 74.2904 37.3791 74.3541C37.505 74.4175 37.6599 74.3664 37.7229 74.2398C39.2917 71.4912 39.9817 67.7556 39.9163 63.4825C39.8631 60.0924 39.3038 56.3826 38.5048 52.5918C37.948 49.9531 37.2556 47.2765 36.4736 44.6448C35.6844 41.9822 34.8152 39.3614 33.8928 36.8792C31.5711 30.6221 29.0338 25.2111 27.4069 21.8846C25.7655 18.6162 23.7197 15.9045 21.703 13.7587C18.9188 10.7964 16.2339 8.91232 14.9363 8.04245C14.5779 7.80156 14.3262 7.64177 14.2124 7.55994L14.1979 7.55001Z" fill="black"/>
<path d="M38.8227 37.9113C33.8207 21.0862 21.2019 10.1347 15.5177 6.76208L13.6987 7.55798C27.2662 17.1055 29.7281 29.4989 33.3659 39.1619C37.0038 48.825 41.4375 64.8544 37.4585 74.6311H45.189C46.2122 63.0354 45.0753 58.9427 38.8227 37.9113Z" fill="white"/>
<path fill-rule="evenodd" clip-rule="evenodd" d="M14.1979 7.55001C14.1373 7.46576 14.0308 7.42315 13.9243 7.45099C13.8613 7.46552 13.6023 7.72796 13.8952 7.97127C14.0042 8.06279 14.2463 8.24388 14.5949 8.51455C15.8006 9.45124 18.2773 11.4827 20.8121 14.5451C22.6085 16.7174 24.4339 19.4084 25.8236 22.6225C27.3101 25.9694 29.4938 31.4515 31.6849 37.6774C32.5516 40.1383 33.4352 42.7095 34.2487 45.3222C35.0525 47.8924 35.8006 50.4969 36.4325 53.0649C37.3307 56.7175 37.9601 60.2916 38.2555 63.5701C38.6211 67.6355 38.4758 71.2404 37.2653 74.0093C37.1999 74.1359 37.2508 74.2904 37.3791 74.3541C37.505 74.4175 37.6599 74.3664 37.7229 74.2398C39.2917 71.4912 39.9817 67.7556 39.9163 63.4825C39.8631 60.0924 39.3038 56.3826 38.5048 52.5918C37.948 49.9531 37.2556 47.2765 36.4736 44.6448C35.6844 41.9822 34.8152 39.3614 33.8928 36.8792C31.5711 30.6221 29.0338 25.2111 27.4069 21.8846C25.7655 18.6162 23.7197 15.9045 21.703 13.7587C18.9188 10.7964 16.2339 8.91232 14.9363 8.04245C14.5779 7.80156 14.3262 7.64177 14.2124 7.55994L14.1979 7.55001Z" fill="black"/>
<path fill-rule="evenodd" clip-rule="evenodd" d="M78.4166 30.7129C76.4653 32.0895 74.6302 33.9024 73.0153 35.9411C71.4344 37.936 70.0762 40.1442 68.9892 42.329C68.1249 44.1118 67.2897 46.1743 66.5779 48.4026C65.9339 50.4089 65.3891 52.5471 64.9364 54.7074C64.4837 56.858 64.1205 59.0318 63.9051 61.1337C63.8397 61.7915 63.7937 62.4413 63.7574 63.0817C63.6726 64.6846 63.6727 66.2147 63.7429 67.6351C63.7429 67.7056 63.801 67.763 63.8712 67.763C63.9414 67.763 63.9995 67.7056 63.9995 67.6351C64.0697 66.229 64.2392 64.7246 64.4668 63.1519C64.5563 62.5251 64.658 61.8905 64.7621 61.2458C65.0914 59.187 65.4957 57.0536 65.9944 54.9427C66.4907 52.8275 67.0766 50.7377 67.7012 48.7602C68.3912 46.5788 69.1199 44.5321 69.9261 42.7708C70.8945 40.5929 72.1438 38.3934 73.5843 36.3672C75.0635 34.2835 76.7389 32.3839 78.5692 30.9173C78.6273 30.8747 78.637 30.7945 78.5958 30.7381C78.5522 30.6817 78.4723 30.6703 78.4166 30.7129Z" fill="black"/>
<path fill-rule="evenodd" clip-rule="evenodd" d="M79.6 32.1923C78.5046 33.128 76.7496 36.0253 74.8844 39.784C74.2556 41.0481 73.6215 42.4098 72.9927 43.8266C72.4022 45.1613 71.8137 46.5415 71.2632 47.9382C70.7338 49.2763 70.2399 50.6285 69.7801 51.9566C69.0319 54.1119 68.3724 56.2037 67.8591 58.0932C67.591 59.0847 67.3638 60.019 67.1903 60.8797C66.8158 62.7468 66.6766 64.2479 66.7676 65.1797C66.7695 65.2503 66.8306 65.305 66.9009 65.302C66.9711 65.2992 67.0263 65.2397 67.022 65.1693C67.0374 64.2581 67.3786 62.8333 67.915 61.0588C68.0312 60.6696 68.1581 60.2652 68.2882 59.8433C68.5616 58.9595 68.8628 58.0097 69.1961 57.0139C69.9413 54.775 70.8474 52.3105 71.7997 49.8203C72.1037 49.0276 72.4072 48.2304 72.7112 47.4374C73.0194 46.6379 73.3254 45.8417 73.6326 45.0569C74.5542 42.7039 75.4864 40.4622 76.3615 38.5158C77.7102 35.5141 78.9102 33.2246 79.7735 32.3808C79.825 32.3333 79.8294 32.2524 79.7807 32.2004C79.7344 32.1481 79.6538 32.1444 79.6 32.1923Z" fill="black"/>
<path fill-rule="evenodd" clip-rule="evenodd" d="M15.3807 6.62981C15.3202 6.54749 15.2137 6.50634 15.1096 6.53394C15.0612 6.54459 14.8142 6.84407 15.1217 7.08254C15.2839 7.20795 15.635 7.45804 16.1337 7.82022C17.9688 9.15251 21.8158 12.0299 25.5757 15.7708C27.6602 17.8449 29.7204 20.1785 31.3667 22.6874C32.8387 24.9034 34.3131 28.0919 35.7197 31.7149C36.4291 33.5367 37.1118 35.4697 37.7727 37.4452C38.7387 40.3303 39.6587 43.3065 40.4092 46.1991C41.4091 49.9193 42.3799 53.1276 43.191 56.1677C43.7938 58.4233 44.2804 60.5863 44.6387 62.8039C45.1932 66.2468 45.4207 69.8132 44.9171 74.1159C44.8953 74.2558 44.9898 74.3882 45.1302 74.4117C45.2682 74.4352 45.4014 74.3408 45.4256 74.2011C46.3843 69.851 46.6094 66.1708 46.2971 62.5981C46.0962 60.2894 45.6531 58.0391 45.1181 55.691C44.4184 52.6209 43.5081 49.3903 42.6099 45.6406C41.8764 42.6836 41.0145 39.6251 40.017 36.6879C39.3294 34.671 38.5813 32.7121 37.8042 30.871C36.2257 27.1317 34.5189 23.8832 32.8968 21.6295C30.5823 18.462 27.6238 15.5878 24.767 13.2356C21.2227 10.3151 17.8696 8.19403 16.2765 7.19536C15.848 6.92566 15.5478 6.74094 15.4098 6.647C15.4001 6.63998 15.3904 6.63417 15.3807 6.62981Z" fill="black"/>
<path d="M43.8249 30.1809C28.7277 26.1792 16.1619 14.2653 11.7661 8.80849L13.9261 7.67163C19.724 12.6737 26.3176 18.3579 43.0291 24.1557C56.3982 28.794 71.8667 29.0441 77.9298 28.5894L79.0667 33.7051C73.6099 34.1977 58.922 34.1826 43.8249 30.1809Z" fill="white"/>
<path fill-rule="evenodd" clip-rule="evenodd" d="M78.2884 28.0966C78.2448 28.0605 78.0923 28.1734 77.8671 28.207C77.1311 28.3164 75.572 28.3266 72.5602 28.1179C71.1294 28.0186 69.379 27.8543 67.2292 27.6504C66.147 27.5475 64.9631 27.4526 63.6751 27.3231C59.3318 26.9207 55.2476 26.2106 51.3061 25.2766C48.5728 24.6283 45.9145 23.8572 43.2877 22.981C40.6585 22.1034 38.0608 21.127 35.4751 20.016C31.725 18.4062 27.9893 16.5561 24.1932 14.4091C22.3435 13.3848 19.8741 11.9784 17.6661 10.4639C16.1409 9.41653 14.744 8.32538 13.778 7.26618C13.686 7.15796 13.5238 7.14441 13.4148 7.23616C13.3083 7.32768 13.2938 7.48988 13.3858 7.5981C14.2961 8.75971 15.647 9.99225 17.1359 11.1807C19.2592 12.8723 21.6608 14.4643 23.4596 15.6303C27.2001 18.007 30.8776 20.1143 34.6156 21.907C37.2182 23.156 39.8451 24.2649 42.53 25.2025C45.2197 26.1416 47.9676 26.9125 50.7929 27.5298C54.8481 28.4152 59.0655 28.9587 63.5274 29.2321C65.0769 29.312 66.4714 29.3856 67.7279 29.4071C70.4394 29.4533 72.4973 29.3715 74.0516 29.2669C76.3733 29.1108 77.5669 28.8541 78.1237 28.7004C78.3901 28.6271 78.5377 28.5641 78.5983 28.5186C78.7096 28.4343 78.7266 28.3392 78.7266 28.2775C78.7266 28.1358 78.6128 28.0206 78.4699 28.0206C78.3997 28.0206 78.3344 28.0496 78.2884 28.0966Z" fill="black"/>
<path fill-rule="evenodd" clip-rule="evenodd" d="M11.4884 9.03097C12.7837 10.6707 15.4516 13.6045 18.047 16.1652C19.899 17.9921 21.7172 19.6193 22.9641 20.4879C26.6004 22.9794 29.9293 25.03 33.1904 26.7279C35.6453 28.0064 38.0566 29.0961 40.5212 30.02C43.0004 30.9489 45.5328 31.7144 48.2031 32.373C51.7959 33.2588 55.6453 33.9292 59.9741 34.5611C62.3128 34.885 64.5643 35.0627 66.7287 35.0799C67.7141 35.0876 68.6777 35.0627 69.6243 35.0097C73.0718 34.816 76.2361 34.309 79.134 33.782C79.2745 33.7643 79.3737 33.6358 79.3568 33.4951C79.3398 33.3544 79.2091 33.2547 79.0687 33.2724C76.1707 33.4813 73.0137 33.5888 69.6073 33.467C68.6873 33.4341 67.7504 33.3854 66.7941 33.3222C64.7072 33.1845 62.538 32.962 60.2937 32.5582C56.0545 31.8273 52.2971 31.029 48.7769 30.1103C46.1961 29.4367 43.746 28.6843 41.3275 27.8193C38.3496 26.7533 35.4178 25.5193 32.3697 23.9878C29.6533 22.6233 26.8401 21.0508 23.8186 19.1784C22.567 18.4163 20.7367 16.9448 18.8435 15.3041C16.115 12.9392 13.2703 10.2315 11.8806 8.69904C11.7886 8.59082 11.6264 8.57727 11.5175 8.66902C11.411 8.76054 11.3964 8.92275 11.4884 9.03097Z" fill="black"/>
<path fill-rule="evenodd" clip-rule="evenodd" d="M0.74585 27.9121C1.99891 28.7163 3.20867 29.9266 4.34147 31.3102C5.92404 33.2404 7.34547 35.5117 8.44219 37.5465C9.5293 39.5204 10.5611 41.5555 11.5664 43.6297C12.2254 44.9871 12.8676 46.3635 13.4953 47.754C14.4285 49.8128 15.328 51.9051 16.1602 54.0399C16.7085 55.4491 17.2401 56.8711 17.7307 58.3132C18.0169 59.1393 18.255 59.8898 18.4763 60.5803C18.7409 61.4124 18.9742 62.1567 19.1786 62.8591C19.6524 64.5047 19.9795 65.8959 20.3619 67.5084C20.3787 67.5952 20.4605 67.6533 20.5471 67.638C20.6337 67.6224 20.6914 67.5396 20.677 67.4525C20.4798 65.794 20.3306 64.3598 20.0228 62.6614C19.8905 61.928 19.7318 61.1491 19.5177 60.2852C19.3397 59.57 19.1185 58.801 18.8659 57.9493C18.4186 56.4714 17.9448 55.0078 17.4277 53.5655C16.6412 51.3801 15.7826 49.2347 14.8398 47.1468C14.2024 45.7376 13.5242 44.3559 12.8195 43C11.742 40.9337 10.59 38.9354 9.40905 36.9871C8.16802 34.9748 6.59265 32.7301 4.85136 30.8645C3.59348 29.5181 2.25384 28.3721 0.909381 27.6372C0.834823 27.5923 0.736234 27.6173 0.690537 27.6928C0.647245 27.7687 0.671292 27.8668 0.74585 27.9121Z" fill="black"/>
<path fill-rule="evenodd" clip-rule="evenodd" d="M1.95251 21.6793C2.24835 23.3999 3.03724 25.2309 4.06994 27.0612C5.14919 28.9771 6.4887 30.8905 7.7871 32.6702C9.28272 34.7232 10.7208 36.5908 11.5919 38.089C12.6766 39.9359 13.66 41.6801 14.5804 43.3375C15.6104 45.1981 16.5472 46.9559 17.3991 48.6547C18.6618 51.1691 19.7466 53.5501 20.6423 55.9603C21.5243 58.2855 22.453 61.0478 23.5076 63.7383C23.7623 64.3884 24.028 65.0311 24.2992 65.6643C25.2936 67.974 26.3646 70.1349 27.4767 71.8488C27.5233 71.9249 27.6191 71.9504 27.6958 71.9057C27.7725 71.861 27.7972 71.7627 27.7534 71.687C27.033 70.3199 26.3756 68.6932 25.7428 66.9497C25.3429 65.8438 24.9621 64.6917 24.5759 63.5333C23.6418 60.7393 22.7269 57.9032 21.9024 55.5038C20.8204 52.4579 19.4946 49.4286 17.7908 46.1858C17.1827 45.0319 16.5225 43.8539 15.8158 42.6364C14.8543 40.9875 13.797 39.2714 12.652 37.4455C11.7069 35.954 10.1867 34.0956 8.56777 32.0729C7.21185 30.3745 5.79018 28.5605 4.62327 26.7295C3.52483 25.0041 2.64829 23.2728 2.26753 21.6169C2.2511 21.5301 2.1662 21.4739 2.07854 21.4913C1.99362 21.5087 1.93608 21.5929 1.95251 21.6793Z" fill="black"/>
<path fill-rule="evenodd" clip-rule="evenodd" d="M12.1341 11.2117C9.62351 13.501 7.42039 16.129 5.75231 19.1802C4.93885 20.6643 4.25855 22.2479 3.72835 23.9334C3.22477 25.5291 2.84953 27.2161 2.651 28.9992C2.47185 30.5791 2.43069 32.2346 2.52753 33.9632C2.65827 36.2663 3.02868 38.7048 3.70172 41.274C3.96803 42.2997 4.28275 43.3458 4.66285 44.4089C5.18821 45.8823 5.83462 47.3768 6.56092 48.9263C6.5924 49.0006 6.67472 49.0367 6.74977 49.0069C6.82482 48.9771 6.86112 48.8926 6.82965 48.8183C6.28976 47.2122 5.85883 45.6606 5.46904 44.161C5.19305 43.0895 4.9437 42.0492 4.72823 41.0316C4.19802 38.5094 3.89782 36.1409 3.81792 33.9036C3.7574 32.2436 3.81793 30.6592 3.97529 29.1417C4.14961 27.4347 4.44254 25.8126 4.86863 24.2699C5.31894 22.6314 5.90242 21.0836 6.60209 19.6153C8.06923 16.5394 10.0303 13.8186 12.3351 11.4192C12.3932 11.3635 12.3931 11.2715 12.3375 11.2144C12.2818 11.157 12.1898 11.1558 12.1341 11.2117Z" fill="black"/>
<path fill-rule="evenodd" clip-rule="evenodd" d="M12.8918 16.3128C11.2479 18.0864 9.46846 20.7084 8.07153 24.0668C7.5147 25.4098 7.02324 26.8699 6.62861 28.4363C6.26546 29.8637 5.97736 31.3783 5.81031 32.974C5.66263 34.3883 5.61179 35.8664 5.66021 37.3974C5.72557 39.4914 5.97011 41.6889 6.464 43.9656C6.66737 44.9004 6.90946 45.848 7.21209 46.8038C7.63576 48.1538 8.17323 49.5081 8.78575 50.8965C8.8148 50.9716 8.89712 51.0101 8.97217 50.9827C9.04722 50.9551 9.08595 50.8716 9.05932 50.7965C8.63322 49.3599 8.31365 47.9589 8.02797 46.5903C7.82944 45.6311 7.65028 44.6932 7.5026 43.7698C7.14429 41.5376 6.96754 39.4047 6.9506 37.3718C6.93607 35.8937 7.00871 34.4714 7.13702 33.1052C7.27986 31.5637 7.49534 30.0947 7.78587 28.704C8.10544 27.1723 8.50733 25.7376 8.96732 24.4058C10.1221 21.0439 11.6353 18.3491 13.1097 16.5019C13.1629 16.4411 13.1557 16.3496 13.0951 16.2973C13.0346 16.2452 12.9426 16.252 12.8918 16.3128Z" fill="black"/>
<path fill-rule="evenodd" clip-rule="evenodd" d="M12.3785 25.6652C11.1584 26.7687 10.2432 28.4089 9.66218 30.5273C9.22397 32.1218 8.98429 33.9831 8.93102 36.0741C8.91408 36.722 8.91893 37.3919 8.94556 38.0828C8.9722 38.7314 9.01819 39.3984 9.0884 40.0816C9.28208 41.9318 9.61617 43.9063 10.0834 45.9838C10.2723 46.8263 10.478 47.6865 10.7347 48.5557C11.0978 49.7918 11.5506 51.0312 12.0202 52.3189C12.042 52.3959 12.1219 52.4412 12.1994 52.4198C12.2769 52.3985 12.3229 52.3186 12.3011 52.2414C12.0517 50.9418 11.8653 49.6827 11.6571 48.4545C11.5264 47.6848 11.3859 46.935 11.26 46.1966C11.0615 45.0294 10.8848 43.9005 10.7395 42.8082C10.633 42.0005 10.5458 41.2142 10.4684 40.4501C10.386 39.6386 10.3207 38.852 10.265 38.0915C10.144 36.3872 10.1004 34.8145 10.1827 33.379C10.2481 32.2216 10.3812 31.1585 10.5918 30.1915C10.9865 28.3869 11.6304 26.9275 12.5843 25.87C12.64 25.8134 12.64 25.7216 12.5819 25.665C12.5262 25.6085 12.4342 25.6085 12.3785 25.6652Z" fill="black"/>
<path fill-rule="evenodd" clip-rule="evenodd" d="M41.8473 67.4901C43.6437 67.5107 45.6944 67.2662 47.8563 66.7285C48.8175 66.489 49.7859 66.1835 50.7591 65.8262C51.7033 65.4797 52.6451 65.0909 53.5578 64.6299C54.4294 64.1896 55.2719 63.6843 56.0805 63.1466C57.3298 62.3145 58.5064 61.4107 59.5377 60.4271C60.0219 59.9634 60.4747 59.494 60.8766 58.9897C61.5254 58.1745 62.0241 57.3482 62.4671 56.5023C62.5543 56.39 62.5325 56.2288 62.4211 56.1423C62.3073 56.0559 62.1476 56.077 62.0604 56.1893C61.3922 56.8047 60.6514 57.3386 59.8404 57.9087C59.6152 58.068 59.39 58.2198 59.1625 58.3859C58.6516 58.757 58.1335 59.1333 57.5936 59.5046C56.2693 60.4171 54.8264 61.257 53.3496 62.0564C52.8654 62.3188 52.3812 62.5856 51.897 62.8469C51.4079 63.1107 50.9237 63.3761 50.4371 63.6313C49.0232 64.3714 47.6142 65.0236 46.2391 65.5712C44.663 66.2004 43.1838 66.711 41.8038 66.9783C41.6609 66.9909 41.5568 67.1156 41.569 67.2567C41.5811 67.3979 41.7069 67.5025 41.8473 67.4901Z" fill="black"/>
<path fill-rule="evenodd" clip-rule="evenodd" d="M41.2178 71.5108C42.9803 71.5865 44.5999 71.5413 46.2002 71.3224C47.0427 71.2072 47.8562 71.0362 48.6721 70.8254C49.4807 70.6162 50.2821 70.3724 51.0713 70.0594C51.8049 69.7691 52.5263 69.4188 53.2454 69.0341C54.2622 68.492 55.2815 67.8901 56.3055 67.1871C56.7341 66.892 57.1577 66.5881 57.5742 66.2419C58.1842 65.7357 58.7217 65.1926 59.3366 64.6164C59.4577 64.5428 59.4964 64.3847 59.4214 64.2634C59.3488 64.1424 59.1914 64.1039 59.0703 64.1775C58.1503 64.5089 57.3006 64.7576 56.4532 65.0912C55.9375 65.295 55.4509 65.5255 54.9643 65.7468C54.2114 66.0901 53.4875 66.4298 52.7684 66.7489C52.2527 66.9774 51.7443 67.1922 51.2456 67.411C50.7348 67.6342 50.2288 67.8497 49.7325 68.0712C48.7157 68.524 47.7254 68.9709 46.6917 69.3539C45.9823 69.617 45.273 69.8652 44.5346 70.0967C43.4548 70.4349 42.3677 70.7508 41.1766 70.9987C41.0362 71.0096 40.9296 71.1333 40.9393 71.2747C40.9514 71.4161 41.0749 71.5219 41.2178 71.5108Z" fill="black"/>
<path fill-rule="evenodd" clip-rule="evenodd" d="M37.1819 10.1505C39.5811 10.6476 41.7552 11.2269 43.8179 11.8641C45.3044 12.3236 46.7207 12.8182 48.1055 13.354C50.2191 14.1721 52.2334 15.1153 54.2936 16.1423C55.6107 16.8003 56.9568 17.4714 58.3271 18.2236C60.4285 19.3233 62.4742 20.4594 64.4595 21.8285C65.2245 22.3551 65.975 22.9105 66.7255 23.5138C67.7956 24.373 68.856 25.2964 69.8704 26.4161C69.9407 26.5074 70.0714 26.5255 70.1634 26.4563C70.253 26.3871 70.2723 26.2568 70.2021 26.1653C69.0715 24.3803 67.8562 22.8744 66.4859 21.593C65.6046 20.7686 64.658 20.0619 63.6993 19.3891C62.2539 18.3745 60.7481 17.4889 59.2277 16.5994C57.8356 15.8164 56.4871 15.0734 55.1241 14.4304C52.9815 13.4206 50.8364 12.6028 48.6091 11.9099C47.1565 11.4581 45.6676 11.069 44.1084 10.7439C41.9683 10.2984 39.7118 9.97935 37.2448 9.73967C37.131 9.72248 37.0245 9.80068 37.0076 9.91399C36.9906 10.0273 37.0681 10.1333 37.1819 10.1505Z" fill="black"/>
<path fill-rule="evenodd" clip-rule="evenodd" d="M47.8732 8.17518C49.5945 8.63663 51.1803 9.20799 52.7176 9.84617C54.2937 10.5006 55.7851 11.2431 57.245 12.0992C57.7655 12.4032 58.2787 12.7216 58.7944 13.046C59.3028 13.3649 59.8088 13.6949 60.3196 14.0297C61.7892 14.9891 63.2636 16.0428 64.7743 17.2283C65.3287 17.6624 65.8831 18.1122 66.4618 18.5638C66.7039 18.7533 66.9508 18.9356 67.2026 19.122C68.0185 19.7259 68.8465 20.3204 69.7059 20.978C69.7858 21.0586 69.9165 21.0581 69.9989 20.9768C70.0788 20.8954 70.0788 20.7637 69.9964 20.6831C69.3282 19.8232 68.7036 19.0039 68.0257 18.2352C67.5536 17.699 67.0694 17.2022 66.578 16.7221C65.4014 15.5695 64.2102 14.5458 63.0094 13.6186C62.1524 12.9574 61.288 12.3478 60.402 11.8067C59.4457 11.2223 58.4627 10.7182 57.4653 10.266C56.4581 9.80888 55.434 9.40941 54.3736 9.07556C52.3472 8.4352 50.2313 8.02217 47.9483 7.76675C47.8345 7.74569 47.7279 7.82001 47.7062 7.93259C47.6844 8.04541 47.7594 8.15412 47.8732 8.17518Z" fill="black"/>
<path fill-rule="evenodd" clip-rule="evenodd" d="M1.66562 41.8881C2.06025 43.5288 3.15938 46.5512 4.44494 49.5443C5.6724 52.3989 7.07177 55.2247 8.18786 56.8127C12.3859 62.771 19.0727 68.2324 26.5464 71.7298C34.1654 75.2957 42.5929 76.8011 50.0351 74.8379C54.9353 73.5383 63.1885 70.13 69.8875 63.992C75.1992 59.124 79.5182 52.5488 80.5205 44.007C81.9974 30.863 77.3369 20.5461 69.5751 13.293C61.5712 5.81567 50.2506 1.60866 39.0655 0.90003C29.6986 0.306639 20.414 2.15218 13.2599 6.57126C9.76393 8.73033 6.77396 11.5031 4.52967 14.8916C0.145213 21.507 -1.42117 30.4832 1.66562 41.8881ZM2.16194 41.7627C-0.443071 30.6221 1.30248 21.9951 5.73536 15.7171C7.94817 12.5836 10.8316 10.0491 14.1678 8.07278C21.0894 3.97279 29.9697 2.31391 38.9226 2.97097C49.5993 3.75465 60.3607 7.82849 67.9797 14.9942C75.2258 21.8106 79.6078 31.4419 78.2375 43.7518C77.3878 51.729 73.3834 57.8799 68.4857 62.4812C62.1281 68.451 54.2598 71.839 49.5751 73.1524C42.5009 75.1446 34.4438 73.7658 27.1081 70.4977C19.7506 67.2201 13.1073 62.0384 8.88993 56.3077C7.76173 54.7761 6.33818 52.035 5.07683 49.2654C3.74043 46.336 2.58804 43.3748 2.16194 41.7627Z" fill="black"/>
</svg>
