<svg width="44" height="40" viewBox="0 0 44 40" fill="none" xmlns="http://www.w3.org/2000/svg">
<path d="M2.79952 20.6127C9.98527 -5.85836 43.6594 -0.899112 41.9362 15.6598C39.1546 42.388 -4.38623 46.4681 2.79952 20.6127Z" fill="#CDE052"/>
<path fill-rule="evenodd" clip-rule="evenodd" d="M25.7089 2C17.4216 1.99928 6.83388 7.21859 3.5 19.5C1.84921 25.4398 4.42211 30.8266 6.83836 33.0263C9.38324 35.3431 13.5846 36.3945 18.4129 35.8669C28.0947 34.8091 38.6804 27.6228 39.9469 15.4527C40.2969 12.0898 39.0656 8.0172 36.5 6C33.8861 3.9448 29.8949 2.00036 25.7089 2ZM38.7947 4.15317C42.2829 6.89579 44.4371 10.9502 43.9254 15.8668C42.4104 30.425 29.8348 38.6428 18.8473 39.8433C13.3409 40.4449 7.83054 39.3389 4.14558 35.9841C0.333039 32.5133 -1.06876 27.068 0.870933 20.0829C4.72424 5.8975 15.7948 -0.000864411 25.7089 9.50162e-08C30.6242 0.000428533 35.3548 1.44854 38.7947 4.15317Z" fill="black"/>
<path fill-rule="evenodd" clip-rule="evenodd" d="M31.0446 1.40669C31.8641 1.3451 32.5987 1.68468 33.2069 2.29286C33.7397 2.82565 33.9136 3.50855 33.7675 4.19981C33.6372 4.81664 33.2661 5.39078 32.8331 5.89875C31.9573 6.92599 30.5097 8.0443 28.7836 9.17927C28.0733 9.6463 27.3029 10.1244 26.4865 10.6088C25.6853 12.5286 24.9882 14.4565 24.455 15.931C24.2589 16.4734 24.085 16.9544 23.9362 17.3511C23.1912 19.3377 21.8538 23.1916 21.431 26.9129C21.3707 27.4428 21.3298 27.9643 21.3112 28.4725C23.375 30.6265 24.9874 32.7537 25.751 34.2584C25.9686 34.6871 26.1439 35.1164 26.226 35.5128C26.2967 35.8547 26.3583 36.4596 25.9559 36.952C25.5064 37.5022 24.8434 37.4965 24.4425 37.4262C24.0116 37.3506 23.5333 37.1511 23.0293 36.8823C21.2301 35.9227 20.2144 34.3231 19.7154 32.509C19.4361 31.4937 19.3135 30.3977 19.3009 29.2766C19.2172 29.1925 19.1326 29.1083 19.0473 29.0241C16.6556 26.663 13.7414 24.3488 10.8219 22.904C8.29969 21.6559 5.91582 21.1236 3.8851 21.5954C3.84925 21.6105 3.81372 21.6255 3.7785 21.6404C1.73685 22.5 2.75836 19.9004 3.25932 19.6887C5.94555 18.553 10.2945 16.6443 14.8171 14.4734C18.323 12.7906 21.9105 10.961 24.9037 9.2192C25.2744 8.35663 25.6649 7.50298 26.0692 6.70019C26.9447 4.96184 27.9499 3.3235 29.0461 2.35636C29.5997 1.86791 30.2722 1.46474 31.0446 1.40669ZM28.0139 7.28954C29.5424 6.26345 30.6733 5.34934 31.3111 4.60119C31.6573 4.1951 31.7813 3.92548 31.8107 3.78645C31.8182 3.75083 31.821 3.73939 31.817 3.73132C31.8138 3.72475 31.806 3.7204 31.7927 3.70708C31.5009 3.41525 31.3105 3.39234 31.1945 3.40106C31.0313 3.41333 30.7578 3.51329 30.3692 3.85609C29.6294 4.50886 28.823 5.72679 28.0139 7.28954ZM23.7036 12.1914C21.1669 13.5807 18.3866 14.9785 15.6825 16.2765C12.9944 17.5668 10.3683 18.7647 8.11036 19.7653C9.32534 20.0607 10.5367 20.5314 11.709 21.1115C14.4684 22.4771 17.161 24.5199 19.449 26.6409C19.9068 22.677 21.3114 18.6544 22.0636 16.6488C22.2006 16.2835 22.3649 15.8285 22.5533 15.3073C22.8731 14.422 23.2621 13.3454 23.7036 12.1914ZM21.5913 31.7774C21.608 31.8451 21.6255 31.9121 21.6437 31.9785C22.0313 33.3873 22.7547 34.4552 23.9338 35.0978C23.4875 34.2395 22.6762 33.0742 21.5913 31.7774ZM24.2789 36.0033C24.2789 36.0033 24.2776 35.9955 24.2781 35.9825C24.2797 35.9972 24.2789 36.0033 24.2789 36.0033Z" fill="black"/>
</svg>
