<svg width="45" height="40" viewBox="0 0 45 40" fill="none" xmlns="http://www.w3.org/2000/svg">
<path d="M2.89303 20.6127C10.0788 -5.85836 43.7529 -0.899112 42.0297 15.6598C39.2481 42.388 -4.29272 46.4681 2.89303 20.6127Z" fill="#CDE052"/>
<path fill-rule="evenodd" clip-rule="evenodd" d="M25.8024 2.5C14.8372 2.49904 8.15704 8.8552 4.82316 21.1366L4.82001 21.1482C3.16922 27.088 4.51562 30.8266 6.93187 33.0263C9.47675 35.3431 13.6781 36.3945 18.5064 35.8669C28.1883 34.8091 38.7739 27.6228 40.0404 15.4527C40.8499 7.67453 32.3077 2.50057 25.8024 2.5ZM38.8882 4.15317C42.3764 6.89579 44.5306 10.9502 44.0189 15.8668C42.5039 30.425 29.9283 38.6428 18.9408 39.8433C13.4344 40.4449 7.92404 39.3389 4.23908 35.9841C0.426545 32.5133 -0.975255 27.068 0.964439 20.0829C4.81775 5.8975 15.8883 -0.000864411 25.8024 9.50162e-08C30.7177 0.000428533 35.4483 1.44854 38.8882 4.15317Z" fill="black"/>
<path d="M6.50009 25C6.00009 28.6667 8.3 33.9 17.5 33.5C29 33 36.0935 21.5 37.0935 16M12.0935 28.5C13.0252 30 16.7297 32.1 24.0935 28.5C26.139 27.5 29.5 24.5 30.5 22.5" stroke="black" stroke-width="2" stroke-linecap="round"/>
</svg>
