<?xml version="1.0" encoding="UTF-8"?>
<svg id="Ebene_1" xmlns="http://www.w3.org/2000/svg" xmlns:xlink="http://www.w3.org/1999/xlink" version="1.1" viewBox="0 0 113 62">
  <!-- Generator: Adobe Illustrator 29.1.0, SVG Export Plug-In . SVG Version: 2.1.0 Build 142)  -->
  <defs>
    <style>
      .st0, .st1, .st2 {
        fill: none;
      }

      .st1 {
        stroke: url(#Unbenannter_Verlauf_2);
      }

      .st1, .st2 {
        stroke-linecap: round;
      }

      .st2 {
        stroke: url(#Unbenannter_Verlauf);
      }

      .st3 {
        fill: #fff;
      }

      .st4 {
        clip-path: url(#clippath);
      }
    </style>
    <clipPath id="clippath">
      <rect class="st0" y="0" width="113" height="62"/>
    </clipPath>
    <linearGradient id="Unbenannter_Verlauf" data-name="Unbenannter Verlauf" x1="12.3" y1="21.8" x2="66.6" y2="50.8" gradientTransform="translate(0 63.3) scale(1 -1)" gradientUnits="userSpaceOnUse">
      <stop offset="0" stop-color="#ffa1a1"/>
      <stop offset=".5" stop-color="#edd1cd"/>
      <stop offset="1" stop-color="#cde052"/>
    </linearGradient>
    <linearGradient id="Unbenannter_Verlauf_2" data-name="Unbenannter Verlauf 2" x1="41.4" y1="8.5" x2="96.4" y2="38.4" gradientTransform="translate(0 63.3) scale(1 -1)" gradientUnits="userSpaceOnUse">
      <stop offset="0" stop-color="#ffa1a1"/>
      <stop offset=".5" stop-color="#edd1cd"/>
      <stop offset="1" stop-color="#cde052"/>
    </linearGradient>
  </defs>
  <g class="st4">
    <g>
      <path class="st2" d="M69.2,18.6c-2.4,1.1-15.8,5.9-29,1.1C11.2,9.1,5,42.4,26.7,38.3c10.2-1.9,24.8-27.6,30.6-32.3,4.6-3.8,6.5,0,5.5,2.2,0,0-16.9,24.7-15.1,31.8"/>
      <path class="st1" d="M50.8,61.9c3.6.5,8.3-.5,13.6-6,5.3-5.5,21.3-28.5,23.7-28.5M58.5,42.7c1.4-1.1,5.8-3.3,12.4-3.3s8.4,2.2,18.5,2.2M58,55.9c-10.1-2.5-13.3-10.7-7.2-18.6,7.7-9.9,19-11,25.5-11s22,2.7,28,2.7"/>
    </g>
  </g>
  <g>
    <path class="st3" d="M38.5,30.5c-1.1,0-2.1-.1-3.1-.4-.9-.3-1.7-.7-2.5-1.2l1.5-4.2c.6.3,1.2.6,1.7.8.5.2,1,.3,1.5.3.7,0,1.3-.2,1.7-.6.4-.4.6-1.1.6-2v-11.2h5.3v12.4c0,1.2-.3,2.3-.8,3.2s-1.3,1.7-2.3,2.2c-1,.5-2.2.8-3.7.8Z"/>
    <path class="st3" d="M47.2,30.1l6.6-18.2h6.2l6.6,18.2h-5.9l-1-3.2h-5.7l-1,3.2h-5.8ZM55.1,22.5h3.5l-1.7-5.2-1.8,5.2Z"/>
    <path class="st3" d="M83.9,31.8l-2.1-2.3c-.7.3-1.5.6-2.3.8s-1.6.3-2.5.3c-1.3,0-2.6-.2-3.7-.7s-2.2-1.1-3.1-2c-.9-.8-1.6-1.9-2.1-3-.5-1.2-.7-2.4-.7-3.8s.2-2.6.7-3.8c.5-1.2,1.2-2.2,2.1-3s1.9-1.5,3.1-2,2.5-.7,3.9-.7,2.6.2,3.8.7c1.2.5,2.2,1.1,3.1,2,.9.8,1.6,1.8,2.1,3,.5,1.1.8,2.4.8,3.7s-.2,2.3-.6,3.3c-.4,1-.9,2-1.6,2.8l2,2.2-3,2.6ZM77.3,26.2c.3,0,.5,0,.8,0s.5-.1.8-.2l-2.1-2.4,2.7-2.3,2.1,2.3c.2-.3.3-.7.4-1.1s.1-.8.1-1.3c0-1-.2-1.9-.6-2.6s-1-1.3-1.7-1.7c-.7-.4-1.5-.6-2.4-.6s-1.3.1-1.9.3-1,.6-1.5,1c-.4.4-.7.9-.9,1.5-.2.6-.3,1.3-.3,2s.2,1.9.6,2.7c.4.8.9,1.4,1.6,1.8.7.4,1.5.6,2.4.6Z"/>
  </g>
  <g>
    <path class="st3" d="M73.9,32c1.5,0,3,.2,4.4.7,1.4.5,2.6,1.1,3.6,2l-2.5,4c-.4-.4-.9-.8-1.5-1.1-.6-.3-1.3-.6-2-.8-.7-.2-1.4-.3-2-.3-.7,0-1.3.1-1.8.3-.5.2-.7.5-.7.9s.2.7.5.9c.4.2,1,.5,2,.7l1.4.4c2.1.6,3.5,1.3,4.4,2.3.9,1,1.3,2.2,1.3,3.5,0,.9-.2,1.7-.6,2.4-.4.7-.9,1.4-1.6,1.9-.7.6-1.5,1-2.4,1.3-.9.3-1.9.5-3,.5-1.5,0-3-.2-4.3-.7-1.3-.4-2.4-1.1-3.2-1.8l2.6-3.9c.3.4.7.7,1.2,1,.5.3,1,.5,1.6.7.6.2,1.2.2,1.8.2.5,0,.9,0,1.2-.2.4-.1.6-.3.8-.5.2-.2.3-.4.3-.7,0-.2,0-.4-.2-.6s-.4-.3-.8-.4c-.4-.1-.9-.3-1.5-.5l-1.4-.4c-2.1-.6-3.5-1.3-4.4-2.2-.9-.9-1.4-2-1.4-3.4,0-1.2.3-2.4,1-3.3.6-1,1.6-1.7,2.7-2.2,1.2-.5,2.5-.8,4.1-.8Z"/>
    <path class="st3" d="M60.2,32.4v13.9s4.9,0,4.9,0v5s-15.2,0-15.2,0v-5s4.9,0,4.9,0v-13.9s5.5,0,5.5,0Z"/>
    <path class="st3" d="M39.1,32.1c1.8,0,3.4.4,4.6,1.1,1.2.7,2.2,1.7,2.8,3,.6,1.3,1,2.7,1,4.4v10.9s-5.4,0-5.4,0v-11.2c0-1-.3-1.8-.8-2.3-.5-.5-1.2-.7-2.2-.7-.9,0-1.7.3-2.2.8s-.8,1.3-.8,2.3v11.2s-5.5,0-5.5,0v-10.9c0-1.7.3-3.1.9-4.4.6-1.3,1.6-2.3,2.8-3s2.8-1.1,4.6-1.1Z"/>
  </g>
</svg>