<svg width="161" height="239" viewBox="0 0 161 239" fill="none" xmlns="http://www.w3.org/2000/svg">
<path fill-rule="evenodd" clip-rule="evenodd" d="M36.5213 14.3297C31.5059 17.7633 23.8239 25.3493 20.9031 29.7526C18.1023 33.9744 11.7214 45.2492 10.6458 47.8767C9.21269 51.3762 6.6704 59.4347 6.28494 61.6979C5.68014 65.2487 5.19331 73.5162 5.2249 79.6875C5.25937 86.3513 5.14404 85.5262 8.07543 100.084C9.57579 107.535 9.85943 108.605 11.5053 113.016C13.5777 118.569 14.57 120.691 17.1767 125.143C20.1308 130.188 24.3556 136.222 29.982 143.428C33.9384 148.497 35.5423 150.217 39.088 153.195C41.4549 155.184 44.0255 157.132 44.8004 157.525C45.7292 157.997 48.7512 158.555 53.6665 159.164C60.4386 160.004 61.9598 160.061 70.2235 159.793C79.1825 159.502 83.5562 159.001 87.7628 157.782C88.7658 157.491 90.3327 157.215 91.2452 157.169C93.2241 157.068 93.8538 157.642 95.2673 160.836C95.7924 162.024 97.057 164.522 98.0768 166.388C99.0965 168.255 101.229 172.278 102.815 175.329C104.401 178.379 107.468 184.006 109.63 187.832C118.404 203.363 121.374 209.284 126.479 221.423C127.949 224.919 128.641 226.112 129.814 227.166C132.073 229.197 134.319 229.929 138.099 229.867C144.33 229.764 149.451 227.226 154.406 221.785C158.182 217.641 159.726 212.521 159.428 209.038C159.13 205.573 157.628 202.774 155.811 198.253C149.488 182.524 142.273 167.501 136.196 154.987C136.196 154.987 132.392 147.139 131.623 143.915C130.853 140.692 131.038 139.051 131.038 139.051C130.472 134.335 130.479 134.113 131.287 131.715C131.745 130.355 132.764 126.942 133.553 124.129C134.341 121.316 135.541 117.055 136.22 114.658C136.899 112.262 142.069 101.426 136.219 77.4936C130.368 53.5611 123.803 41.8199 109.333 25.9845C94.8638 10.1491 71.1404 1.49106 50.8335 7.98842C43.0241 10.4871 41.6389 10.8261 36.5213 14.3297ZM59.1575 11.7981C53.1015 14.0388 49.1876 17.1072 47.0171 21.9509C46.9668 22.1175 48.1795 21.5068 49.7119 20.5934C51.2443 19.6803 52.8308 18.9549 53.237 18.9819C53.8666 19.0236 54.6336 19.8729 55.1816 21.1346C55.3032 21.4143 60.4483 17.8772 63.3159 15.5429C64.4447 14.6239 65.395 14.4767 65.4477 15.2127C65.4685 15.503 64.9523 16.798 64.3007 18.0907C63.6487 19.3832 63.1843 20.4977 63.2682 20.5671C63.3521 20.6368 64.7203 19.9515 66.3087 19.0448C70.3247 16.7519 82.4284 13.619 83.2213 14.7151C83.3609 14.9078 82.7974 16.1719 81.9688 17.5242C81.1406 18.8764 80.0394 21.1371 79.5226 22.5483L78.5821 25.1138L79.6515 24.1808C81.0127 22.9939 83.2458 21.4111 83.6071 21.377C84.1163 21.3294 83.9754 22.4798 82.9742 26.5467C82.4277 28.7658 81.9248 31.2539 81.8563 32.0754L81.7318 33.5691L82.6579 32.3985C84.0373 30.6545 85.9435 28.9986 86.628 28.9496C87.1506 28.9121 87.2894 29.5347 87.6506 33.537C88.0583 38.0578 89.3738 43.6238 89.8754 42.9513C90.3733 42.2835 92.5277 33.124 92.5255 31.6851C92.5226 29.9763 93.5638 27.2519 94.6152 30.4437C95.3283 32.6391 96.365 34.2837 96.9602 29.7654C96.7988 27.5134 102.448 26.0236 101.171 24.4095C100.62 23.7129 98.2369 21.176 94.8405 18.6626C91.4442 16.1491 85.3008 13.3307 78.7295 11.3147C72.1583 9.29861 64.4187 9.8515 59.1575 11.7981ZM40.5117 15.9743C40.0882 16.5693 40.1757 16.5957 41.5118 16.2779C42.3171 16.0866 43.2247 15.8935 43.5286 15.8491C44.1557 15.7578 42.5076 15.3064 41.5814 15.3164C41.2484 15.3198 40.7671 15.616 40.5117 15.9743ZM36.9982 18.9172C35.8 19.1735 34.8256 19.7277 33.6895 20.8002C32.8038 21.6361 32.0842 22.3896 32.0903 22.4745C32.0964 22.5591 33.1361 22.4541 34.4003 22.241C36.7019 21.8534 38.5321 20.7987 39.8772 19.0847C40.4479 18.3579 40.4364 18.3327 39.5839 18.4417C39.0958 18.5037 37.9325 18.7178 36.9982 18.9172ZM44.2726 21.0366C43.6023 21.6826 42.3433 22.8166 41.4749 23.5566C38.0372 26.4859 26.5438 44.0735 24.2408 49.9289C19.7606 61.3199 18.856 67.5038 19.7416 80.6889C20.5184 92.257 21.7992 99.2104 25.0393 109.448C28.5077 120.406 36.3313 133.579 43.8093 141.049C48.9568 146.191 57.0479 151.204 63.4224 153.202C69.4864 155.102 72.7028 155.402 80.6629 154.813C90.8441 154.06 98.6193 152.233 104.952 149.106C108.76 147.225 109.456 146.432 109.368 144.068C109.331 143.04 109.308 141.739 109.318 141.177C109.329 140.615 109.314 138.319 109.286 136.076C109.24 132.406 109.615 125.886 109.965 124.282C110.039 123.941 110.454 123.543 110.887 123.396C111.503 123.187 112.158 123.558 113.882 125.09C115.096 126.168 116.629 127.661 117.29 128.406C119.554 130.96 120.917 132.074 122.761 132.876C123.776 133.317 124.864 133.66 125.178 133.638C125.911 133.585 127.8 132.038 127.763 131.52C127.747 131.302 128.321 129.644 129.038 127.834C129.755 126.025 130.577 123.693 130.864 122.651C131.152 121.61 131.901 119.422 132.53 117.788C133.598 115.013 134.805 110.81 136.2 105.009C138.826 94.0912 134.015 74.2637 123.756 54.1194C117.06 40.9705 109.858 30.2196 104.078 26.4986C101.009 28.5563 99.216 29.6749 97.8655 34.3139C97.6027 37.8472 97.3355 38.5756 96.2729 38.6518C95.8081 38.6851 95.3507 38.1473 94.7757 36.8927L93.9482 35.0857L93.3943 39.6268C92.661 45.644 90.828 50.4464 89.4268 50.0223C87.8111 49.5334 85.5663 42.1004 85.4972 37.0112C85.4722 35.1756 85.5457 33.3749 85.6602 33.0092C86.1466 31.4592 85.0526 32.5981 83.5546 35.2017C81.163 39.3577 80.7178 39.6803 79.6892 38.0027C78.3942 35.8903 78.8722 31.1571 80.8511 26.4946C81.2256 25.6122 81.516 24.7592 81.4967 24.5995C81.477 24.4394 80.4932 25.5318 79.31 27.0267C76.6452 30.3939 76.1656 30.3251 76.2585 26.5876C76.3286 23.7668 76.9128 21.6748 78.2946 19.2989C78.7626 18.4941 79.0728 17.7725 78.9835 17.6958C78.7775 17.5179 69.1806 20.2165 66.8027 21.1338C65.8065 21.5181 64.3986 22.2782 63.6741 22.8227C62.9499 23.3671 61.9368 23.8428 61.423 23.8796C60.5997 23.9386 60.4782 23.7911 60.3949 22.6296C60.343 21.9055 60.4566 20.9645 60.6475 20.5384C61.222 19.2557 60.7918 19.4183 58.771 21.2471C55.1843 24.493 54.0169 24.7013 53.4297 22.2004C53.2443 21.4108 52.9393 20.7756 52.7515 20.7891C52.243 20.8255 50.3632 22.0092 48.2697 23.6113C47.2486 24.3927 46.1583 24.9545 45.8462 24.8603C45.119 24.6403 44.9816 22.8265 45.5616 21.1068C46.0993 19.513 45.8665 19.5004 44.2726 21.0366ZM31.3167 25.0614C29.1268 25.6315 27.1855 26.7613 27.234 27.4375C27.2485 27.641 28.2881 27.6218 29.7436 27.3913C31.9268 27.0459 32.3741 26.8353 33.4288 25.6566C34.729 24.2037 34.6731 24.1881 31.3167 25.0614ZM26.6177 30.2258C24.6626 30.7575 22.386 32.5175 22.4525 33.4456C22.4734 33.7369 24.4581 33.4525 26.8745 32.8121C27.3988 32.6732 28.1873 31.9155 28.7257 31.0332C29.7455 29.3618 29.7662 29.3696 26.6177 30.2258ZM37.9909 32.8897C36.4068 34.7812 32.8148 40.0619 31.3312 42.68C29.4931 45.9242 24.9703 57.4073 24.0108 61.2667C22.2924 68.1766 21.413 75.7919 21.7568 80.7832C22.1088 85.8978 24.6203 98.3368 25.8218 100.916C26.0599 101.428 26.7001 103.364 27.2443 105.218C28.1949 108.457 30.6354 114.616 31.7805 116.667C32.378 117.737 33.7187 117.936 33.6476 116.944C33.604 116.336 32.676 113.698 30.6088 108.306C27.5865 100.423 26.1504 94.3516 25.2028 85.4504C24.4755 78.6207 24.4709 78.0987 25.0959 73.4382C26.0063 66.6489 26.9048 62.2304 28.4334 57.0248C30.7662 49.0816 34.9831 39.9588 38.2171 35.8593C39.9859 33.6171 40.6222 32.4383 40.5567 31.5239C40.4832 30.4984 39.5989 30.9693 37.9909 32.8897ZM22.276 36.6196L19.5069 37.3823L17.7929 40.5934C13.8165 48.0434 10.5108 58.2857 9.81702 65.3067C9.0744 72.8205 8.97988 75.1279 9.2237 79.7722C9.50803 85.195 11.07 96.6382 11.9072 99.4386C12.1764 100.338 12.8309 102.63 13.3618 104.531C15.5834 112.487 18.907 120.668 19.871 120.552C20.2161 120.51 21.3184 120.389 22.32 120.283L24.1416 120.091L22.7914 117.125C21.5335 114.362 17.263 102.079 16.2748 98.3832C15.0621 93.8451 14.4615 89.8529 13.9545 82.9595C13.2256 73.0416 13.6868 68.4224 16.5955 56.5156C17.7556 51.7681 20.4729 45.3411 23.7209 39.6645C25.4479 36.6459 25.8557 35.6816 25.3593 35.7888C25.1866 35.8261 23.7991 36.1998 22.276 36.6196ZM19.0862 40.3689C17.2278 43.789 12.5936 55.2553 11.963 57.9931C11.2522 61.0785 11.2812 62.112 12.0954 62.6929C13.0515 63.3749 13.5779 62.4244 14.2153 58.8658C14.7843 55.6888 19.2022 44.3468 21.1791 40.9873C22.2713 39.1311 22.3195 38.7282 21.4793 38.474C20.4081 38.1499 20.2048 38.3107 19.0862 40.3689ZM81.2851 62.186C78.512 62.8253 72.3981 65.518 69.3911 67.4242L66.7128 69.1217L64.2999 68.1996C61.8345 67.2575 55.5468 66.6164 51.5689 66.9014C49.1815 67.0725 44.4036 68.4282 43.1074 69.3024C41.3786 70.4682 41.6469 70.8454 44.3989 71.117C45.8012 71.2552 47.4645 71.5566 48.0953 71.7865L49.2421 72.2046L47.3482 72.3704C40.7533 72.948 33.3424 76.3172 33.5104 78.6615C33.5621 79.3831 34.1282 79.6305 37.1472 80.2501L39.0227 80.6346L36.6905 81.6707C33.1703 83.2348 30.5938 84.8681 28.9513 86.5768C27.7137 87.8644 27.455 88.4104 27.3672 89.9229C27.2114 92.6056 28.2947 92.9277 32.11 91.3347C34.7039 90.2513 39.0124 89.1197 39.3692 89.4278C39.5168 89.5553 39.299 90.0746 38.8849 90.582C37.4883 92.2949 38.2047 92.6504 42.6874 92.468C44.9016 92.3784 46.833 92.4085 46.9794 92.5354C47.1259 92.6626 46.6396 93.6997 45.8985 94.84C44.0654 97.6613 42.0545 102.88 41.4285 106.441C40.9741 109.025 40.9819 109.446 41.4918 109.886C42.0018 110.327 42.3268 110.254 44.1544 109.29C46.6895 107.952 47.8618 107.493 47.8859 107.83C47.8958 107.969 47.4062 109.059 46.7978 110.253C44.4969 114.765 43.3345 121.876 44.2071 126.099C44.8664 129.289 46.3258 129.186 49.6257 125.715L51.5644 123.677L51.9325 124.865C52.1354 125.519 52.4897 128.516 52.7206 131.525C53.0767 136.167 53.2349 137.04 53.7646 137.288C55.0442 137.886 58.1581 131.446 59.6871 125.041C60.5438 121.451 60.4567 118.188 59.4319 115.504C59.063 114.538 58.8356 113.662 58.9268 113.557C59.0179 113.452 59.7653 113.933 60.5879 114.627C61.4101 115.32 62.268 115.874 62.494 115.858C64.1777 115.737 63.7154 102.236 61.8948 98.3577C61.6457 97.827 61.9083 97.8597 63.5469 98.5638C64.6182 99.0245 65.7217 99.2951 65.999 99.1653C67.1828 98.6128 66.3129 89.8549 64.8349 87.4445C63.6419 85.4989 63.869 85.5353 69.0175 88.1192C72.6069 89.921 73.466 90.2091 74.7178 90.0307L76.192 89.8211L75.9906 87.5156C75.8801 86.2478 75.8667 85.2046 75.9608 85.1978C76.0553 85.191 77.2436 85.9344 78.6018 86.8501C79.9599 87.7653 82.3472 89.2067 83.907 90.053C86.7117 91.5744 90.5297 94.1014 90.8066 94.6202C91.1724 95.304 91.9594 94.696 92.1308 93.5973C92.3412 92.247 91.9818 87.9692 91.569 86.9101C91.3273 86.2905 91.4402 86.2968 92.9026 86.9842C95.1043 88.0183 98.9128 91.5304 100.259 93.7684C101.32 95.5312 101.795 95.8097 103.217 95.5025C103.983 95.3374 104.031 95.2468 104.171 93.697C104.239 92.9412 104.476 92.248 104.697 92.1564C105.288 91.9117 109.925 97.8945 111.875 101.418C112.803 103.096 113.899 105.639 114.309 107.069C114.66 108.291 115 109 115.568 110.356C115.992 111.366 116.952 111.657 117.265 110.356C117.427 109.68 117.672 108.036 117.809 106.702C117.946 105.367 118.367 102.664 118.745 100.696C119.561 96.4442 119.31 94.1307 117.366 87.9676C115.338 81.5388 111.402 76.4494 106.185 73.5103L103.973 72.2639L105.491 71.85C108.275 71.0907 107.861 69.642 104.489 68.3498C99.0942 66.2821 95.4207 65.9466 88.5251 66.8909C85.9983 67.2368 83.859 67.4577 83.7705 67.3816C83.4927 67.1413 85.0042 64.5494 85.8907 63.745C86.3577 63.3217 86.7147 62.625 86.684 62.1974C86.6347 61.5094 86.4261 61.4393 84.8723 61.5919C83.9063 61.6863 82.2923 61.9538 81.2851 62.186ZM81.7523 63.511C77.8204 64.7174 68.2949 69.5091 67.7446 70.5578C67.4065 71.2019 66.3976 71.0967 64.3903 70.209C62.7789 69.4964 61.6516 69.3608 56.695 69.282C53.5009 69.2314 50.4656 69.1478 49.95 69.0961C49.4344 69.0443 48.5456 69.1292 47.9748 69.2844C47.1167 69.5181 47.6145 69.7211 50.851 70.4576C55.3516 71.4822 56.8167 72.0193 57.4374 72.8735C58.3064 74.0688 57.4027 74.3897 53.7565 74.1803C51.2433 74.036 49.4704 74.1597 46.6479 74.6756C42.8835 75.3637 38.4401 76.8368 38.0844 77.5145C37.9802 77.7128 38.8785 78.0704 40.0802 78.3095C43.6359 79.0164 44.8142 79.4119 45.2905 80.0575C46.0376 81.0704 44.9158 81.8738 41.6135 82.6921C37.9687 83.5951 33.8754 85.584 32.2454 87.2438L31.0483 88.4628L32.1421 88.141C36.9259 86.7325 38.2488 86.4276 40.2003 86.2818C42.1544 86.1362 42.6358 85.9403 44.1792 84.66C47.747 81.7014 50.5632 80.3964 51.7632 81.146C52.7827 81.783 52.1996 82.4929 49.3578 84.0755C48.1116 84.7695 45.7642 86.326 44.1413 87.5339L41.1909 89.7308L44.1686 89.7231C45.8063 89.7189 47.8287 89.8877 48.6628 90.0978C51.3959 90.7861 52.4239 92.1593 50.7776 92.9221C49.5968 93.4692 46.8315 97.8852 44.9036 102.303C44.0149 104.339 43.2945 106.1 43.3029 106.217C43.3112 106.333 44.2447 106.034 45.3769 105.552C47.4802 104.658 51.317 103.759 51.3453 104.154C51.354 104.275 50.7688 106.303 50.0447 108.66C48.4488 113.858 47.997 115.932 47.3612 120.973C46.7864 125.529 46.791 125.261 47.2955 124.898C47.5153 124.74 48.323 123.002 49.0901 121.035C50.095 118.46 50.6725 117.447 51.1565 117.413C52.9168 117.287 54.4559 126.783 54.6057 128.872C54.7343 130.668 55.2748 129.68 55.9359 126.443C56.5177 123.594 56.553 122.362 56.1978 117.363C56.0165 114.816 56.3635 110.358 57.1497 110.302C57.2801 110.293 58.3008 110.821 59.4177 111.477L61.4487 112.669L61.4827 111.538C61.501 110.917 61.1718 107.834 60.7502 104.687C60.135 100.093 59.8233 98.7345 59.1668 97.7871C58.0756 96.212 57.2144 94.0707 57.4735 93.5766C57.6016 93.3329 58.953 93.7546 60.949 94.6609C62.7453 95.4769 64.3022 96.0438 64.4089 95.9211C64.5155 95.7984 64.2553 94.5521 63.831 93.1515C63.01 90.4424 61.328 87.3198 60.0312 86.0972C57.8453 84.036 60.381 82.3176 64.2754 83.2215C66.863 83.8219 70.5585 85.3006 72.32 86.4405L73.5887 87.2616L73.4951 85.9554C73.4436 85.2371 73.1485 83.919 72.8388 83.0259C72.5295 82.1331 72.3711 81.2933 72.4873 81.1598C72.844 80.7494 74.3482 81.5837 77.8887 84.1566C79.7566 85.5142 82.5542 87.15 84.1058 87.7923C85.6573 88.4343 87.4081 89.2494 87.9964 89.6041C89.2589 90.3644 89.2878 90.1392 88.2955 87.2835C87.9147 86.1879 87.5608 84.73 87.5093 84.0433C87.4179 82.8301 87.451 82.7984 88.686 82.9085C91.6032 83.1683 95.5518 85.088 98.7147 87.7845C100.408 89.2273 101.94 90.302 102.119 90.1726C102.299 90.0435 102.4 89.2924 102.344 88.504C102.287 87.7156 102.399 86.9566 102.592 86.8177C103.971 85.8254 110.737 93.7963 113.465 99.6263C114.376 101.572 115.246 103.158 115.399 103.151C115.552 103.144 115.54 101.225 115.373 98.8857C114.778 90.5903 111.292 82.4245 106.307 77.6519C102.744 74.2417 99.3047 73.1318 93.5712 73.5426C91.7385 73.6739 91.2232 73.5902 91.1921 73.1563C91.1703 72.8516 91.2772 72.592 91.43 72.5791C93.106 72.4386 100.072 70.8122 101.028 70.338L102.273 69.7205L99.9628 69.2491C95.9539 68.4314 91.6952 68.3939 87.2144 69.137C82.9941 69.837 82.1464 69.7997 81.3111 68.8763C80.511 67.9919 80.6372 67.2026 81.8814 65.3114C82.5276 64.3289 83.0505 63.4436 83.0433 63.3436C83.0293 63.1478 82.8696 63.1686 81.7523 63.511ZM75.1204 73.9987C74.5687 74.6333 75.0837 75.2749 76.7893 76.0773C77.796 76.5508 79.757 77.5866 81.1473 78.379C83.924 79.961 84.2403 80.0486 84.1809 79.2184C84.1083 78.2058 80.9144 75.6066 78.5425 74.6295C76.1688 73.6519 75.5248 73.5332 75.1204 73.9987ZM65.2889 75.8977C64.0864 77.0199 65.0009 77.817 67.3025 77.6521C71.0426 77.3841 73.7172 78.5543 79.5189 82.9975C81.306 84.3664 82.7529 85.2679 82.7338 85.0013C82.6143 83.3328 75.53 76.9771 72.3214 75.6599C69.7991 74.6243 66.5357 74.7345 65.2889 75.8977ZM61.635 76.4439C57.9238 79.3178 54.1994 85.4428 52.6403 91.2356C51.7877 94.4035 51.5045 97.2419 52.2585 95.0624C54.9982 87.1446 58.342 81.2792 62.0772 77.8409C63.0394 76.9553 63.8259 76.1058 63.8249 75.9525C63.8224 75.4594 62.5326 75.7485 61.635 76.4439ZM85.0883 75.293C85.2025 75.568 86.308 76.0682 87.5446 76.405C91.0112 77.3489 97.194 80.0539 100.002 81.8549C101.395 82.7484 104.003 84.7519 105.8 86.3076C107.596 87.8634 109.154 89.1296 109.263 89.1218C110.3 89.0474 106.05 84.809 101.161 81.0428C96.9576 77.8047 90.4477 74.9661 86.9778 74.8588C85.2898 74.8064 84.921 74.8911 85.0883 75.293ZM10.9208 87.9433C10.7347 89.2158 11.7617 93.8381 12.3715 94.4725C12.6084 94.7188 13.1364 94.8962 13.5449 94.8669C14.255 94.8161 14.2651 94.6609 13.776 91.4202C13.494 89.5537 13.086 87.7455 12.8686 87.4022C12.2359 86.4022 11.1003 86.7178 10.9208 87.9433ZM129.5 113C128.683 115.826 127.053 120.103 126.47 121.146C126.222 121.592 125.653 123.031 125.206 124.344C124.76 125.656 124.029 127.411 123.582 128.242C122.676 129.93 122.825 130.466 124.173 130.369C126.684 130.189 129.038 123.972 133 110.5C133.508 108.772 130.552 109.359 129.5 113ZM14.0237 101.762C15.166 108.065 17.302 114.5 19.1677 116.789C19.5159 117.216 20.3794 118.876 20.7753 118.847C21.7172 118.78 21.6346 117.581 20.5151 115.075C19.2039 112.14 18.3134 109.511 16.9438 104.534C15.4064 98.9462 14.985 98.1044 13.7679 98.1917C12.8668 98.2562 13.6144 99.5041 14.0237 101.762ZM22.0566 122.738C20.5112 123.012 20.4307 123.328 21.4127 125.269L22.0772 126.583L24.3622 126.167C25.6187 125.939 26.7046 125.694 26.7751 125.624C26.8457 125.554 26.5378 124.764 26.0909 123.868C25.2206 122.123 25.338 122.156 22.0566 122.738ZM119.911 117.384C117.11 121.604 116.666 122.454 116.924 123.1C117.073 123.473 117.559 123.866 118.004 123.972C118.986 124.207 119.698 123.296 121.049 120.076C122.46 116.712 121.641 114.777 119.911 117.384ZM124.783 116.87C124.504 117.247 123.732 118.68 123.068 120.055C122.403 121.429 121.346 123.425 120.719 124.489C119.434 126.667 119.455 127.131 120.839 127.196C121.565 127.23 122.006 126.925 122.635 125.953C123.98 123.875 126.422 118.005 126.352 117.02C126.275 115.957 125.512 115.884 124.783 116.87ZM23.4705 128.321C23.3542 128.543 23.5714 129.132 23.953 129.631C24.5811 130.453 24.8041 130.505 26.3104 130.188C27.2258 129.996 28.2888 129.816 28.6729 129.788C29.3299 129.741 29.3326 129.675 28.7176 128.672C28.1029 127.669 27.9322 127.614 25.8725 127.762C24.6677 127.848 23.5867 128.1 23.4705 128.321ZM27.1648 131.737C26.4091 131.94 25.7213 132.187 25.6356 132.285C25.55 132.384 25.8431 132.973 26.2865 133.595C27.0613 134.682 27.1879 134.72 29.5058 134.554C30.8329 134.459 31.9124 134.291 31.9045 134.182C31.8967 134.072 31.5064 133.348 31.0373 132.574C30.1282 131.073 29.8563 131.014 27.1648 131.737ZM111.596 129.805C111.176 134.282 111.932 143.497 113.093 148.052C114.947 155.325 119.279 166.64 123.328 174.787C127.275 182.729 134.305 199.074 135.043 202.027C135.362 203.301 136.004 205.318 136.472 206.51C138.121 210.715 138.176 210.458 135.562 210.748C131.259 211.226 125.739 212.387 125.782 212.804C125.806 213.028 126.051 213.529 126.328 213.918C126.786 214.562 127.258 214.598 131.649 214.329C134.299 214.167 136.89 214.166 137.405 214.326C138.311 214.607 138.319 214.632 137.634 215.063C136.792 215.593 131.885 216.675 129.569 216.841C127.748 216.971 127.747 216.973 128.497 218.654C128.956 219.684 129.201 219.837 130.273 219.76C131.903 219.643 134.86 220.172 134.89 220.587C134.902 220.765 133.83 220.99 132.505 221.085C130.667 221.216 130.107 221.382 130.136 221.784C130.255 223.448 135.671 224.5 140.239 223.746C143.568 223.198 147.171 221.078 149.872 218.078C152.287 215.395 155.469 209.888 155.068 209.083C154.454 207.853 153.503 205.339 151.442 199.498C149.538 194.103 147.456 188.489 146.077 185.035C145.099 182.586 139.896 172.008 139.022 170.693C137.795 168.846 136.649 168.719 135.945 170.353C135.115 172.28 136.341 176.312 140.378 184.933C145.344 195.535 148.635 204.555 148.893 208.27C149.175 212.325 146.129 215.413 142.572 212.122C141.129 210.786 138.699 204.308 139.618 204.243C139.786 204.231 140.465 205.142 141.126 206.269C143.402 210.146 146.668 210.673 146.215 205.697C145.961 202.902 145.249 200.802 143.246 196.93C141.903 194.337 139.54 189.147 136.293 181.661C131.576 170.784 131.115 165.506 134.86 165.237C136.355 165.13 136.508 164.352 135.188 163.565C133.166 162.358 131.261 163.611 130.672 166.536C130.391 167.932 131.336 172.594 132.587 175.979C134.713 181.732 138.525 190.473 141.288 195.934C143.678 200.655 142.515 199.559 139.378 194.133C132.312 181.912 128.8 173.418 128.314 167.377C128.157 165.424 128.211 163.575 128.444 162.891C129.31 160.359 131.92 159.695 134.159 160.33C132.11 156.376 130.056 152.424 128.012 148.468C126.468 145.476 123.123 139.872 122.382 139.035C121.958 138.555 120.221 136.341 118.523 134.115C116.824 131.888 114.638 129.298 113.663 128.358L111.892 126.649L111.596 129.805ZM102.788 130.453C100.98 131.521 100.659 131.851 101.041 132.248C101.589 132.818 104.962 132.677 106.369 132.025C107.619 131.446 107.563 129.53 106.29 129.286C105.093 129.057 105.226 129.012 102.788 130.453ZM29.9141 136.278C28.5041 136.556 28.4325 137.21 29.6892 138.334C30.4927 139.054 30.8206 139.099 32.8926 138.775L35.2006 138.415L34.1547 137.098C33.0674 135.728 32.8836 135.693 29.9141 136.278ZM102.235 134.554C99.1231 135.686 95.799 137.448 95.8348 137.947C95.8527 138.198 97.3484 138.227 100.029 138.03C103.341 137.786 104.507 137.554 105.718 136.898C107.026 136.19 107.23 135.914 107.161 134.947C107.099 134.083 106.914 133.833 106.37 133.872C105.979 133.9 105.432 133.867 105.154 133.8C104.877 133.732 103.563 134.071 102.235 134.554ZM36.4958 141.106C36.5103 141.309 35.6056 141.541 34.4851 141.621C33.3647 141.701 32.4573 141.891 32.469 142.044C32.4803 142.196 33.1658 142.993 33.9919 143.814L35.4939 145.307L38.2205 144.996L40.9471 144.684L39.0582 142.685C37.2688 140.792 36.4365 140.279 36.4958 141.106ZM101.316 139.107C95.4358 141.211 89.5432 143.662 89.5671 143.996C89.6068 144.549 92.9499 144.181 99.0248 142.955C105.159 141.716 107.211 140.846 107.116 139.525C107.084 139.067 106.925 138.623 106.764 138.539C105.854 138.065 103.563 138.303 101.316 139.107ZM36.9146 146.95C36.9266 147.118 37.3917 147.624 37.9482 148.075C38.8573 148.812 39.2299 148.864 41.6145 148.584C43.0746 148.413 44.334 148.2 44.414 148.111C44.4936 148.022 44.1383 147.562 43.6242 147.089C42.782 146.315 42.4029 146.25 39.7913 146.437C38.1972 146.552 36.9026 146.783 36.9146 146.95ZM102.109 144.19C100.945 144.655 98.3134 145.339 96.2612 145.711C94.2093 146.082 90.9704 146.824 89.0636 147.36C87.1568 147.896 84.6459 148.511 83.4843 148.728C81.0644 149.179 80.7839 149.66 82.8059 149.89C84.5865 150.092 96.1409 148.833 98.9984 148.125C101.91 147.403 106.433 145.403 106.632 144.75C106.857 144.011 105.946 143.178 105.012 143.269C104.579 143.311 103.273 143.725 102.109 144.19ZM120.512 142.935C119.262 143.375 118.18 145.063 117.915 146.987C117.223 152.004 122.596 162.852 125.353 168.703C126.706 171.573 127.741 173.229 127.706 172.466C127.692 172.18 126.865 169.734 125.868 167.03C122.713 158.481 122.002 156.047 121.558 152.271C120.927 146.904 121.802 145.597 125.194 146.839C125.89 147.135 126.479 146.747 125.788 145.711C124.608 143.94 123.517 141.876 120.512 142.935ZM42.077 150.255C39.7099 150.721 41.4202 151.146 44.7114 150.91C47.6533 150.7 48.0066 150.606 47.5677 150.149C47.0757 149.637 45.0132 149.677 42.077 150.255ZM48.7132 151.562C48.6131 151.677 47.8104 151.967 46.9289 152.206C45.3688 152.629 45.3939 152.637 47.8746 152.499C50.1005 152.375 50.3596 152.291 49.9223 151.836C49.4002 151.293 49.0217 151.207 48.7132 151.562ZM46.6325 154.434C46.0886 154.694 46.3106 154.904 47.8844 155.618C49.6174 156.403 50.1597 156.459 53.6362 156.205L57.4749 155.926L55.1611 154.808C53.0733 153.8 52.5763 153.711 50.0705 153.905C48.5433 154.022 46.996 154.26 46.6325 154.434ZM116.177 193.237C116.189 193.398 116.452 193.828 116.762 194.193C117.206 194.717 117.49 194.767 118.112 194.436C118.867 194.033 118.844 193.994 117.528 193.48C116.773 193.185 116.166 193.076 116.177 193.237ZM118.959 198.255C119.5 198.71 125.157 198.521 124.963 198.055C124.88 197.856 123.407 197.746 121.689 197.809C119.667 197.883 118.704 198.04 118.959 198.255ZM121.157 202.689C121.33 203.135 121.495 203.521 121.522 203.546C121.55 203.57 123.445 203.53 125.732 203.457C130.012 203.319 130.1 203.277 128.787 201.956C128.288 201.455 127.55 201.395 124.513 201.613C120.876 201.874 120.844 201.884 121.157 202.689ZM123.549 207.714C123.634 208.719 124.334 208.867 128.079 208.671C130.221 208.558 132.542 208.528 133.237 208.604L134.5 208.742L133.609 207.668L132.719 206.593L128.115 206.923C124.675 207.169 123.52 207.369 123.549 207.714Z" fill="black"/>
<path fill-rule="evenodd" clip-rule="evenodd" d="M44.2726 21.0366C43.6023 21.6826 42.3433 22.8166 41.4749 23.5566C38.0372 26.4859 26.5438 44.0735 24.2408 49.9289C19.7606 61.3199 18.856 67.5038 19.7416 80.6889C20.5184 92.257 21.7992 99.2104 25.0393 109.448C28.5077 120.406 36.3313 133.579 43.8093 141.049C48.9568 146.191 57.0479 151.204 63.4224 153.202C69.4864 155.102 72.7028 155.402 80.6629 154.813C90.8441 154.06 98.6193 152.233 104.952 149.106C108.76 147.225 109.456 146.432 109.368 144.068C109.331 143.04 109.308 141.739 109.318 141.177C109.329 140.615 109.314 138.319 109.286 136.076C109.24 132.406 109.615 125.886 109.965 124.282C110.039 123.941 110.454 123.543 110.887 123.396C111.503 123.187 112.158 123.558 113.882 125.09C115.096 126.168 116.629 127.661 117.29 128.406C119.554 130.96 120.917 132.074 122.761 132.876C123.776 133.317 124.864 133.66 125.178 133.638C125.911 133.585 127.8 132.038 127.763 131.52C127.747 131.302 128.321 129.644 129.038 127.834C129.755 126.025 130.577 123.693 130.864 122.651C131.152 121.61 131.901 119.422 132.53 117.788C133.598 115.013 134.805 110.81 136.2 105.009C138.826 94.0912 134.015 74.2637 123.756 54.1194C117.06 40.9705 109.858 30.2196 104.078 26.4986C101.009 28.5563 99.216 29.6749 97.8655 34.3139C97.6027 37.8472 97.3355 38.5756 96.2729 38.6518C95.8081 38.6851 95.3507 38.1473 94.7757 36.8927L93.9482 35.0857L93.3943 39.6268C92.661 45.644 90.828 50.4464 89.4268 50.0223C87.8111 49.5334 85.5663 42.1004 85.4972 37.0112C85.4722 35.1756 85.5457 33.3749 85.6602 33.0092C86.1466 31.4592 85.0526 32.5981 83.5546 35.2017C81.163 39.3577 80.7178 39.6803 79.6892 38.0027C78.3942 35.8903 78.8722 31.1571 80.8511 26.4946C81.2256 25.6122 81.516 24.7592 81.4967 24.5995C81.477 24.4394 80.4932 25.5318 79.31 27.0267C76.6452 30.3939 76.1656 30.3251 76.2585 26.5876C76.3286 23.7668 76.9128 21.6748 78.2946 19.2989C78.7626 18.4941 79.0728 17.7725 78.9835 17.6958C78.7775 17.5179 69.1806 20.2165 66.8027 21.1338C65.8065 21.5181 64.3986 22.2782 63.6741 22.8227C62.9499 23.3671 61.9368 23.8428 61.423 23.8796C60.5997 23.9386 60.4782 23.7911 60.3949 22.6296C60.343 21.9055 60.4566 20.9645 60.6475 20.5384C61.222 19.2557 60.7918 19.4183 58.771 21.2471C55.1843 24.493 54.0169 24.7013 53.4297 22.2004C53.2443 21.4108 52.9393 20.7756 52.7515 20.7891C52.243 20.8255 50.3632 22.0092 48.2697 23.6113C47.2486 24.3927 46.1583 24.9545 45.8462 24.8603C45.119 24.6403 44.9816 22.8265 45.5616 21.1068C46.0993 19.513 45.8665 19.5004 44.2726 21.0366ZM31.3312 42.68C32.8148 40.0619 36.4068 34.7812 37.9909 32.8897C39.5989 30.9693 40.4832 30.4984 40.5567 31.5239C40.6222 32.4383 39.9859 33.6171 38.2171 35.8593C34.9831 39.9588 30.7662 49.0816 28.4334 57.0248C26.9048 62.2304 26.0063 66.6489 25.0959 73.4382C24.4709 78.0987 24.4755 78.6207 25.2028 85.4504C26.1504 94.3516 27.5865 100.423 30.6088 108.306C32.676 113.698 33.604 116.336 33.6476 116.944C33.7187 117.936 32.378 117.737 31.7805 116.667C30.6354 114.616 28.1949 108.457 27.2443 105.218C26.7001 103.364 26.0599 101.428 25.8218 100.916C24.6203 98.3368 22.1088 85.8978 21.7568 80.7832C21.413 75.7919 22.2924 68.1766 24.0108 61.2667C24.9703 57.4073 29.4931 45.9242 31.3312 42.68ZM69.3911 67.4242C72.3981 65.518 78.512 62.8253 81.2851 62.186C82.2923 61.9538 83.9063 61.6863 84.8723 61.5919C86.4261 61.4393 86.6347 61.5094 86.684 62.1974C86.7147 62.625 86.3577 63.3217 85.8907 63.745C85.0042 64.5494 83.4927 67.1413 83.7705 67.3816C83.859 67.4577 85.9983 67.2368 88.5251 66.8909C95.4207 65.9466 99.0942 66.2821 104.489 68.3498C107.861 69.642 108.275 71.0907 105.491 71.85L103.973 72.2639L106.185 73.5103C111.402 76.4494 115.338 81.5388 117.366 87.9676C119.31 94.1307 119.561 96.4442 118.745 100.696C118.367 102.664 117.946 105.367 117.809 106.702C117.672 108.036 117.427 109.68 117.265 110.356C116.952 111.657 115.992 111.366 115.568 110.356C115 109 114.66 108.291 114.309 107.069C113.899 105.639 112.803 103.096 111.875 101.418C109.925 97.8945 105.288 91.9117 104.697 92.1564C104.476 92.248 104.239 92.9412 104.171 93.697C104.031 95.2468 103.983 95.3374 103.217 95.5025C101.795 95.8097 101.32 95.5312 100.259 93.7684C98.9128 91.5304 95.1043 88.0183 92.9026 86.9842C91.4402 86.2968 91.3273 86.2905 91.569 86.9101C91.9818 87.9692 92.3412 92.247 92.1308 93.5973C91.9594 94.696 91.1724 95.304 90.8066 94.6202C90.5297 94.1014 86.7117 91.5744 83.907 90.053C82.3472 89.2067 79.9599 87.7653 78.6018 86.8501C77.2436 85.9344 76.0553 85.191 75.9608 85.1978C75.8667 85.2046 75.8801 86.2478 75.9906 87.5156L76.192 89.8211L74.7178 90.0307C73.466 90.2091 72.6069 89.921 69.0175 88.1192C63.869 85.5353 63.6419 85.4989 64.8349 87.4445C66.3129 89.8549 67.1828 98.6128 65.999 99.1653C65.7217 99.2951 64.6182 99.0245 63.5469 98.5638C61.9083 97.8597 61.6457 97.827 61.8948 98.3577C63.7154 102.236 64.1777 115.737 62.494 115.858C62.268 115.874 61.4101 115.32 60.5879 114.627C59.7653 113.933 59.0179 113.452 58.9268 113.557C58.8356 113.662 59.063 114.538 59.4319 115.504C60.4567 118.188 60.5438 121.451 59.6871 125.041C58.1581 131.446 55.0442 137.886 53.7646 137.288C53.2349 137.04 53.0767 136.167 52.7206 131.525C52.4897 128.516 52.1354 125.519 51.9325 124.865L51.5644 123.677L49.6257 125.715C46.3258 129.186 44.8664 129.289 44.2071 126.099C43.3345 121.876 44.4969 114.765 46.7978 110.253C47.4062 109.059 47.8958 107.969 47.8859 107.83C47.8618 107.493 46.6895 107.952 44.1544 109.29C42.3268 110.254 42.0018 110.327 41.4918 109.886C40.9819 109.446 40.9741 109.025 41.4285 106.441C42.0545 102.88 44.0654 97.6613 45.8985 94.84C46.6396 93.6997 47.1259 92.6626 46.9794 92.5354C46.833 92.4085 44.9016 92.3784 42.6874 92.468C38.2047 92.6504 37.4883 92.2949 38.8849 90.582C39.299 90.0746 39.5168 89.5553 39.3692 89.4278C39.0124 89.1197 34.7039 90.2513 32.11 91.3347C28.2947 92.9277 27.2114 92.6056 27.3672 89.9229C27.455 88.4104 27.7137 87.8644 28.9513 86.5768C30.5938 84.8681 33.1703 83.2348 36.6905 81.6707L39.0227 80.6346L37.1472 80.2501C34.1282 79.6305 33.5621 79.3831 33.5104 78.6615C33.3424 76.3172 40.7533 72.948 47.3482 72.3704L49.2421 72.2046L48.0953 71.7865C47.4645 71.5566 45.8012 71.2552 44.3989 71.117C41.6469 70.8454 41.3786 70.4682 43.1074 69.3024C44.4036 68.4282 49.1815 67.0725 51.5689 66.9014C55.5468 66.6164 61.8345 67.2575 64.2999 68.1996L66.7128 69.1217L69.3911 67.4242ZM133 110.5C129.038 123.972 126.684 130.189 124.173 130.369C122.825 130.466 122.676 129.93 123.582 128.242C124.029 127.411 124.76 125.656 125.206 124.344C125.653 123.031 126.222 121.592 126.47 121.146C127.053 120.103 128.683 115.826 129.5 113C130.552 109.359 133.508 108.772 133 110.5ZM116.924 123.1C116.666 122.454 117.11 121.604 119.911 117.384C121.641 114.777 122.46 116.712 121.049 120.076C119.698 123.296 118.986 124.207 118.004 123.972C117.559 123.866 117.073 123.473 116.924 123.1ZM123.068 120.055C123.732 118.68 124.504 117.247 124.783 116.87C125.512 115.884 126.275 115.957 126.352 117.02C126.422 118.005 123.98 123.875 122.635 125.953C122.006 126.925 121.565 127.23 120.839 127.196C119.455 127.131 119.434 126.667 120.719 124.489C121.346 123.425 122.403 121.429 123.068 120.055ZM101.041 132.248C100.659 131.851 100.98 131.521 102.788 130.453C105.226 129.012 105.093 129.057 106.29 129.286C107.563 129.53 107.619 131.446 106.369 132.025C104.962 132.677 101.589 132.818 101.041 132.248ZM95.8348 137.947C95.799 137.448 99.1231 135.686 102.235 134.554C103.563 134.071 104.877 133.732 105.154 133.8C105.432 133.867 105.979 133.9 106.37 133.872C106.914 133.833 107.099 134.083 107.161 134.947C107.23 135.914 107.026 136.19 105.718 136.898C104.507 137.554 103.341 137.786 100.029 138.03C97.3484 138.227 95.8527 138.198 95.8348 137.947ZM89.5671 143.996C89.5432 143.662 95.4358 141.211 101.316 139.107C103.563 138.303 105.854 138.065 106.764 138.539C106.925 138.623 107.084 139.067 107.116 139.525C107.211 140.846 105.159 141.716 99.0248 142.955C92.9499 144.181 89.6068 144.549 89.5671 143.996ZM96.2612 145.711C98.3134 145.339 100.945 144.655 102.109 144.19C103.273 143.725 104.579 143.311 105.012 143.269C105.946 143.178 106.857 144.011 106.632 144.75C106.433 145.403 101.91 147.403 98.9984 148.125C96.1409 148.833 84.5865 150.092 82.8059 149.89C80.7839 149.66 81.0644 149.179 83.4843 148.728C84.6459 148.511 87.1568 147.896 89.0636 147.36C90.9704 146.824 94.2093 146.082 96.2612 145.711Z" fill="#FF2A83"/>
<path fill-rule="evenodd" clip-rule="evenodd" d="M111.596 129.805C111.176 134.282 111.932 143.497 113.093 148.052C114.947 155.325 119.279 166.64 123.328 174.787C127.275 182.729 134.305 199.074 135.043 202.027C135.362 203.301 136.004 205.318 136.472 206.51C138.121 210.715 138.176 210.458 135.562 210.748C131.259 211.226 125.739 212.387 125.782 212.804C125.806 213.028 126.051 213.529 126.328 213.918C126.786 214.562 127.258 214.598 131.649 214.329C134.299 214.167 136.89 214.166 137.405 214.326C138.311 214.607 138.319 214.632 137.634 215.063C136.792 215.593 131.885 216.675 129.569 216.841C127.748 216.971 127.747 216.973 128.497 218.654C128.956 219.684 129.201 219.837 130.273 219.76C131.903 219.643 134.86 220.172 134.89 220.587C134.902 220.765 133.83 220.99 132.505 221.085C130.667 221.216 130.107 221.382 130.136 221.784C130.255 223.448 135.671 224.5 140.239 223.746C143.568 223.198 147.171 221.078 149.872 218.078C152.287 215.395 155.469 209.888 155.068 209.083C154.454 207.853 153.503 205.339 151.442 199.498C149.538 194.103 147.456 188.489 146.077 185.035C145.099 182.586 139.896 172.008 139.022 170.693C137.795 168.846 136.649 168.719 135.945 170.353C135.115 172.28 136.341 176.312 140.378 184.933C145.344 195.535 148.635 204.555 148.893 208.27C149.175 212.325 146.129 215.413 142.572 212.122C141.129 210.786 138.699 204.308 139.618 204.243C139.786 204.231 140.465 205.142 141.126 206.269C143.402 210.146 146.668 210.673 146.215 205.697C145.961 202.902 145.249 200.802 143.246 196.93C141.903 194.337 139.54 189.147 136.293 181.661C131.576 170.784 131.115 165.506 134.86 165.237C136.355 165.13 136.508 164.352 135.188 163.565C133.166 162.358 131.261 163.611 130.672 166.536C130.391 167.932 131.336 172.594 132.587 175.979C134.713 181.732 138.525 190.473 141.288 195.934C143.678 200.655 142.515 199.559 139.378 194.133C132.312 181.912 128.8 173.418 128.314 167.377C128.157 165.424 128.211 163.575 128.444 162.891C129.31 160.359 131.92 159.695 134.159 160.33C132.11 156.376 130.056 152.424 128.012 148.468C126.468 145.476 123.123 139.872 122.382 139.035C121.958 138.555 120.221 136.341 118.523 134.115C116.824 131.888 114.638 129.298 113.663 128.358L111.892 126.649L111.596 129.805ZM117.915 146.987C118.18 145.063 119.262 143.375 120.512 142.935C123.517 141.876 124.608 143.94 125.788 145.711C126.479 146.747 125.89 147.135 125.194 146.839C121.802 145.597 120.927 146.904 121.558 152.271C122.002 156.047 122.713 158.481 125.868 167.03C126.865 169.734 127.692 172.18 127.706 172.466C127.741 173.229 126.706 171.573 125.353 168.703C122.596 162.852 117.223 152.004 117.915 146.987Z" fill="#CDE052"/>
<path d="M123.549 207.714C123.634 208.719 124.334 208.867 128.079 208.671C130.221 208.558 132.542 208.528 133.237 208.604L134.5 208.742L133.609 207.668L132.719 206.593L128.115 206.923C124.675 207.169 123.52 207.369 123.549 207.714Z" fill="#CDE052"/>
<path d="M121.157 202.689C121.33 203.135 121.495 203.521 121.522 203.546C121.55 203.57 123.445 203.53 125.732 203.457C130.012 203.319 130.1 203.277 128.787 201.956C128.288 201.455 127.55 201.395 124.513 201.613C120.876 201.874 120.844 201.884 121.157 202.689Z" fill="#CDE052"/>
<path d="M118.959 198.255C119.5 198.71 125.157 198.521 124.963 198.055C124.88 197.856 123.407 197.746 121.689 197.809C119.667 197.883 118.704 198.04 118.959 198.255Z" fill="#CDE052"/>
<path d="M116.177 193.237C116.189 193.398 116.452 193.828 116.762 194.193C117.206 194.717 117.49 194.767 118.112 194.436C118.867 194.033 118.844 193.994 117.528 193.48C116.773 193.185 116.166 193.076 116.177 193.237Z" fill="#CDE052"/>
<path fill-rule="evenodd" clip-rule="evenodd" d="M81.7523 63.511C77.8204 64.7174 68.2949 69.5091 67.7446 70.5578C67.4065 71.2019 66.3976 71.0967 64.3903 70.209C62.7789 69.4964 61.6516 69.3608 56.695 69.282C53.5009 69.2314 50.4656 69.1478 49.95 69.0961C49.4344 69.0443 48.5456 69.1292 47.9748 69.2844C47.1167 69.5181 47.6145 69.7211 50.851 70.4576C55.3516 71.4822 56.8167 72.0193 57.4374 72.8735C58.3064 74.0688 57.4027 74.3897 53.7565 74.1803C51.2433 74.036 49.4704 74.1597 46.6479 74.6756C42.8835 75.3637 38.4401 76.8368 38.0844 77.5145C37.9802 77.7128 38.8785 78.0704 40.0802 78.3095C43.6359 79.0164 44.8142 79.4119 45.2905 80.0575C46.0376 81.0704 44.9158 81.8738 41.6135 82.6921C37.9687 83.5951 33.8754 85.584 32.2454 87.2438L31.0483 88.4628L32.1421 88.141C36.9259 86.7325 38.2488 86.4276 40.2003 86.2818C42.1544 86.1362 42.6358 85.9403 44.1792 84.66C47.747 81.7014 50.5632 80.3964 51.7632 81.146C52.7827 81.783 52.1996 82.4929 49.3578 84.0755C48.1116 84.7695 45.7642 86.326 44.1413 87.5339L41.1909 89.7308L44.1686 89.7231C45.8063 89.7189 47.8287 89.8877 48.6628 90.0978C51.3959 90.7861 52.4239 92.1593 50.7776 92.9221C49.5968 93.4692 46.8315 97.8852 44.9036 102.303C44.0149 104.339 43.2945 106.1 43.3029 106.217C43.3112 106.333 44.2447 106.034 45.3769 105.552C47.4802 104.658 51.317 103.759 51.3453 104.154C51.354 104.275 50.7688 106.303 50.0447 108.66C48.4488 113.858 47.997 115.932 47.3612 120.973C46.7864 125.529 46.791 125.261 47.2955 124.898C47.5153 124.74 48.323 123.002 49.0901 121.035C50.095 118.46 50.6725 117.447 51.1565 117.413C52.9168 117.287 54.4559 126.783 54.6057 128.872C54.7343 130.668 55.2748 129.68 55.9359 126.443C56.5177 123.594 56.553 122.362 56.1978 117.363C56.0165 114.816 56.3635 110.358 57.1497 110.302C57.2801 110.293 58.3008 110.821 59.4177 111.477L61.4487 112.669L61.4827 111.538C61.501 110.917 61.1718 107.834 60.7502 104.687C60.135 100.093 59.8233 98.7345 59.1668 97.7871C58.0756 96.212 57.2144 94.0707 57.4735 93.5766C57.6016 93.3329 58.953 93.7546 60.949 94.6609C62.7453 95.4769 64.3022 96.0438 64.4089 95.9211C64.5155 95.7984 64.2553 94.5521 63.831 93.1515C63.01 90.4424 61.328 87.3198 60.0312 86.0972C57.8453 84.036 60.381 82.3176 64.2754 83.2215C66.863 83.8219 70.5585 85.3006 72.32 86.4405L73.5887 87.2616L73.4951 85.9554C73.4436 85.2371 73.1485 83.919 72.8388 83.0259C72.5295 82.1331 72.3711 81.2933 72.4873 81.1598C72.844 80.7494 74.3482 81.5837 77.8887 84.1566C79.7566 85.5142 82.5542 87.15 84.1058 87.7923C85.6573 88.4343 87.4081 89.2494 87.9964 89.6041C89.2589 90.3644 89.2878 90.1392 88.2955 87.2835C87.9147 86.1879 87.5608 84.73 87.5093 84.0433C87.4179 82.8301 87.451 82.7984 88.686 82.9085C91.6032 83.1683 95.5518 85.088 98.7147 87.7845C100.408 89.2273 101.94 90.302 102.119 90.1726C102.299 90.0435 102.4 89.2924 102.344 88.504C102.287 87.7156 102.399 86.9566 102.592 86.8177C103.971 85.8254 110.737 93.7963 113.465 99.6263C114.376 101.572 115.246 103.158 115.399 103.151C115.552 103.144 115.54 101.225 115.373 98.8857C114.778 90.5903 111.292 82.4245 106.307 77.6519C102.744 74.2417 99.3047 73.1318 93.5712 73.5426C91.7385 73.6739 91.2232 73.5902 91.1921 73.1563C91.1703 72.8516 91.2772 72.592 91.43 72.5791C93.106 72.4386 100.072 70.8122 101.028 70.338L102.273 69.7205L99.9628 69.2491C95.9539 68.4314 91.6952 68.3939 87.2144 69.137C82.9941 69.837 82.1464 69.7997 81.3111 68.8763C80.511 67.9919 80.6372 67.2026 81.8814 65.3114C82.5276 64.3289 83.0505 63.4436 83.0433 63.3436C83.0293 63.1478 82.8696 63.1686 81.7523 63.511ZM76.7893 76.0773C75.0837 75.2749 74.5687 74.6333 75.1204 73.9987C75.5248 73.5332 76.1688 73.6519 78.5425 74.6295C80.9144 75.6066 84.1083 78.2058 84.1809 79.2184C84.2403 80.0486 83.924 79.961 81.1473 78.379C79.757 77.5866 77.796 76.5508 76.7893 76.0773ZM67.3025 77.6521C65.0009 77.817 64.0864 77.0199 65.2889 75.8977C66.5357 74.7345 69.7991 74.6243 72.3214 75.6599C75.53 76.9771 82.6143 83.3328 82.7338 85.0013C82.7529 85.2679 81.306 84.3664 79.5189 82.9975C73.7172 78.5543 71.0426 77.3841 67.3025 77.6521ZM52.6403 91.2356C54.1994 85.4428 57.9238 79.3178 61.635 76.4439C62.5326 75.7485 63.8224 75.4594 63.8249 75.9525C63.8259 76.1058 63.0394 76.9553 62.0772 77.8409C58.342 81.2792 54.9982 87.1446 52.2585 95.0624C51.5045 97.2419 51.7877 94.4035 52.6403 91.2356ZM87.5446 76.405C86.308 76.0682 85.2025 75.568 85.0883 75.293C84.921 74.8911 85.2898 74.8064 86.9778 74.8588C90.4477 74.9661 96.9576 77.8047 101.161 81.0428C106.05 84.809 110.3 89.0474 109.263 89.1218C109.154 89.1296 107.596 87.8634 105.8 86.3076C104.003 84.7519 101.395 82.7484 100.002 81.8549C97.194 80.0539 91.0112 77.3489 87.5446 76.405Z" fill="#35C8BF"/>
<path d="M59.1575 11.7981C53.1015 14.0388 49.1876 17.1072 47.0171 21.9509C46.9668 22.1175 48.1795 21.5068 49.7119 20.5934C51.2443 19.6803 52.8308 18.9549 53.237 18.9819C53.8666 19.0236 54.6336 19.8729 55.1816 21.1346C55.3032 21.4143 60.4483 17.8772 63.3159 15.5429C64.4447 14.6239 65.395 14.4767 65.4477 15.2127C65.4685 15.503 64.9523 16.798 64.3007 18.0907C63.6487 19.3832 63.1843 20.4977 63.2682 20.5671C63.3521 20.6368 64.7203 19.9515 66.3087 19.0448C70.3247 16.7519 82.4284 13.619 83.2213 14.7151C83.3609 14.9078 82.7974 16.1719 81.9688 17.5242C81.1406 18.8764 80.0394 21.1371 79.5226 22.5483L78.5821 25.1138L79.6515 24.1808C81.0127 22.9939 83.2458 21.4111 83.6071 21.377C84.1163 21.3294 83.9754 22.4798 82.9742 26.5467C82.4277 28.7658 81.9248 31.2539 81.8563 32.0754L81.7318 33.5691L82.6579 32.3985C84.0373 30.6545 85.9435 28.9986 86.628 28.9496C87.1506 28.9121 87.2894 29.5347 87.6506 33.537C88.0583 38.0578 89.3738 43.6238 89.8754 42.9513C90.3733 42.2835 92.5277 33.124 92.5255 31.6851C92.5226 29.9763 93.5638 27.2519 94.6152 30.4437C95.3283 32.6391 96.365 34.2837 96.9602 29.7654C96.7988 27.5134 102.448 26.0236 101.171 24.4095C100.62 23.7129 98.2369 21.176 94.8405 18.6626C91.4442 16.1491 85.3008 13.3307 78.7295 11.3147C72.1583 9.29861 64.4187 9.8515 59.1575 11.7981Z" fill="#35C8BF"/>
<path fill-rule="evenodd" clip-rule="evenodd" d="M22.276 36.6196L19.5069 37.3823L17.7929 40.5934C13.8165 48.0434 10.5108 58.2857 9.81702 65.3067C9.0744 72.8205 8.97988 75.1279 9.2237 79.7722C9.50803 85.195 11.07 96.6382 11.9072 99.4386C12.1764 100.338 12.8309 102.63 13.3618 104.531C15.5834 112.487 18.907 120.668 19.871 120.552C20.2161 120.51 21.3184 120.389 22.32 120.283L24.1416 120.091L22.7914 117.125C21.5335 114.362 17.263 102.079 16.2748 98.3832C15.0621 93.8451 14.4615 89.8529 13.9545 82.9595C13.2256 73.0416 13.6868 68.4224 16.5955 56.5156C17.7556 51.7681 20.4729 45.3411 23.7209 39.6645C25.4479 36.6459 25.8557 35.6816 25.3593 35.7888C25.1866 35.8261 23.7991 36.1998 22.276 36.6196ZM11.963 57.9931C12.5936 55.2553 17.2278 43.789 19.0862 40.3689C20.2048 38.3107 20.4081 38.1499 21.4793 38.474C22.3195 38.7282 22.2713 39.1311 21.1791 40.9873C19.2022 44.3468 14.7843 55.6888 14.2153 58.8658C13.5779 62.4244 13.0515 63.3749 12.0954 62.6929C11.2812 62.112 11.2522 61.0785 11.963 57.9931ZM12.3715 94.4725C11.7617 93.8381 10.7347 89.2158 10.9208 87.9433C11.1003 86.7178 12.2359 86.4022 12.8686 87.4022C13.086 87.7455 13.494 89.5537 13.776 91.4202C14.2651 94.6609 14.255 94.8161 13.5449 94.8669C13.1364 94.8962 12.6084 94.7188 12.3715 94.4725ZM19.1677 116.789C17.302 114.5 15.166 108.065 14.0237 101.762C13.6144 99.5041 12.8668 98.2562 13.7679 98.1917C14.985 98.1044 15.4064 98.9462 16.9438 104.534C18.3134 109.511 19.2039 112.14 20.5151 115.075C21.6346 117.581 21.7172 118.78 20.7753 118.847C20.3794 118.876 19.5159 117.216 19.1677 116.789Z" fill="#CDE052"/>
<path d="M22.0566 122.738C20.5112 123.012 20.4307 123.328 21.4127 125.269L22.0772 126.583L24.3622 126.167C25.6187 125.939 26.7046 125.694 26.7751 125.624C26.8457 125.554 26.5378 124.764 26.0909 123.868C25.2206 122.123 25.338 122.156 22.0566 122.738Z" fill="#CDE052"/>
<path d="M23.4705 128.321C23.3542 128.543 23.5714 129.132 23.953 129.631C24.5811 130.453 24.8041 130.505 26.3104 130.188C27.2258 129.996 28.2888 129.816 28.6729 129.788C29.3299 129.741 29.3326 129.675 28.7176 128.672C28.1029 127.669 27.9322 127.614 25.8725 127.762C24.6677 127.848 23.5867 128.1 23.4705 128.321Z" fill="#CDE052"/>
<path d="M27.1648 131.737C26.4091 131.94 25.7213 132.187 25.6356 132.285C25.55 132.384 25.8431 132.973 26.2865 133.595C27.0613 134.682 27.1879 134.72 29.5058 134.554C30.8329 134.459 31.9124 134.291 31.9045 134.182C31.8967 134.072 31.5064 133.348 31.0373 132.574C30.1282 131.073 29.8563 131.014 27.1648 131.737Z" fill="#CDE052"/>
<path d="M29.9141 136.278C28.5041 136.556 28.4325 137.21 29.6892 138.334C30.4927 139.054 30.8206 139.099 32.8926 138.775L35.2006 138.415L34.1547 137.098C33.0674 135.728 32.8836 135.693 29.9141 136.278Z" fill="#CDE052"/>
<path d="M36.4958 141.106C36.5103 141.309 35.6056 141.541 34.4851 141.621C33.3647 141.701 32.4573 141.891 32.469 142.044C32.4803 142.196 33.1658 142.993 33.9919 143.814L35.4939 145.307L38.2205 144.996L40.9471 144.684L39.0582 142.685C37.2688 140.792 36.4365 140.279 36.4958 141.106Z" fill="#CDE052"/>
<path d="M36.9146 146.95C36.9266 147.118 37.3917 147.624 37.9482 148.075C38.8573 148.812 39.2299 148.864 41.6145 148.584C43.0746 148.413 44.334 148.2 44.414 148.111C44.4936 148.022 44.1383 147.562 43.6242 147.089C42.782 146.315 42.4029 146.25 39.7913 146.437C38.1972 146.552 36.9026 146.783 36.9146 146.95Z" fill="#CDE052"/>
<path d="M42.077 150.255C39.7099 150.721 41.4202 151.146 44.7114 150.91C47.6533 150.7 48.0066 150.606 47.5677 150.149C47.0757 149.637 45.0132 149.677 42.077 150.255Z" fill="#CDE052"/>
<path d="M48.7132 151.562C48.6131 151.677 47.8104 151.967 46.9289 152.206C45.3688 152.629 45.3939 152.637 47.8746 152.499C50.1005 152.375 50.3596 152.291 49.9223 151.836C49.4002 151.293 49.0217 151.207 48.7132 151.562Z" fill="#CDE052"/>
<path d="M46.6325 154.434C46.0886 154.694 46.3106 154.904 47.8844 155.618C49.6174 156.403 50.1597 156.459 53.6362 156.205L57.4749 155.926L55.1611 154.808C53.0733 153.8 52.5763 153.711 50.0705 153.905C48.5433 154.022 46.996 154.26 46.6325 154.434Z" fill="#CDE052"/>
<path d="M26.6177 30.2258C24.6626 30.7575 22.386 32.5175 22.4525 33.4456C22.4734 33.7369 24.4581 33.4525 26.8745 32.8121C27.3988 32.6732 28.1873 31.9155 28.7257 31.0332C29.7455 29.3618 29.7662 29.3696 26.6177 30.2258Z" fill="#CDE052"/>
<path d="M31.3167 25.0614C29.1268 25.6315 27.1855 26.7613 27.234 27.4375C27.2485 27.641 28.2881 27.6218 29.7436 27.3913C31.9268 27.0459 32.3741 26.8353 33.4288 25.6566C34.729 24.2037 34.6731 24.1881 31.3167 25.0614Z" fill="#CDE052"/>
<path d="M36.9982 18.9172C35.8 19.1735 34.8256 19.7277 33.6895 20.8002C32.8038 21.6361 32.0842 22.3896 32.0903 22.4745C32.0964 22.5591 33.1361 22.4541 34.4003 22.241C36.7019 21.8534 38.5321 20.7987 39.8772 19.0847C40.4479 18.3579 40.4364 18.3327 39.5839 18.4417C39.0958 18.5037 37.9325 18.7178 36.9982 18.9172Z" fill="#CDE052"/>
<path d="M40.5117 15.9743C40.0882 16.5693 40.1757 16.5957 41.5118 16.2779C42.3171 16.0866 43.2247 15.8935 43.5286 15.8491C44.1557 15.7578 42.5076 15.3064 41.5814 15.3164C41.2484 15.3198 40.7671 15.616 40.5117 15.9743Z" fill="#CDE052"/>
<path d="M69.5 122C69.5 128.5 61 133 58.5 126.5L57.5 111.5L63 115L60 96.5001L66 98.5001L63 85.5001L75 88.0001V83.0001L90.5 93.5001V85.5001L101 90.5001H106C109 94.8335 111.2 95.0002 112 101C113 108.5 105.5 115.5 99.5 105.5C96.9136 101.189 93.0264 99.6661 89 99.5683C83.6859 99.4392 86.5 104.938 81 107C73 110 70.774 105.811 70 108C68.9468 110.979 69.5 115.66 69.5 122Z" fill="black"/>
<path d="M41.0001 88.0001L30.0001 91.0001C27.8335 95.0001 30.2865 101.195 35.5 99.0001C44.9998 95.0001 38.6879 101.919 37 115C35 130.5 47.0001 132 45.5001 125.5C44.3001 120.3 47.6668 110 49.5001 105.5L42.5001 107.5C41.7001 103.1 46.5001 95.3335 49.0001 92.0001L40.0001 91.0001L41.0001 88.0001Z" fill="black"/>
<path d="M51 33.5001C45.8522 33.5001 45.6666 28.0001 46.4999 24.0001L53 20.0001L55 22.5001L61.5 18.5001L62.5 21.5001L80 16.5001L77.5 27.5001L82.5 23.5001L81 37.0001L86.2442 31.2792C86.2845 31.1006 86.3649 31.0001 86.5 31.0001L86.2442 31.2792C85.9858 32.4227 87.3649 36.7704 86.5 38.5001C83.6946 44.1109 78.6101 42.7951 75.5001 38.5001C72.39 34.2052 69.9393 26.9229 65.5001 26.5001C55.0001 25.5001 57 33.5001 51 33.5001Z" fill="black"/>
</svg>
