<svg xmlns="http://www.w3.org/2000/svg" width="3403" height="146" fill="none"><path stroke="url(#a)" stroke-linecap="round" stroke-linejoin="round" d="M328.418 1c-38.232 0-73.915 26.761-73.915 72 0 45.239 34.408 72 73.915 72 39.506 0 72.64-27.398 72.64-72 0-44.602-34.409-72-72.64-72Z"/><path stroke="url(#b)" stroke-linecap="round" stroke-linejoin="round" d="M662.5 142.451h-97.129V4.186H662.5v28.672h-63.994v25.487h53.162v26.761h-53.162v28.673H662.5v28.672Z"/><path stroke="url(#c)" stroke-linecap="round" stroke-linejoin="round" d="M1 4.186V142.45h32.5V95H63c15.333-.333 46-10 46-46S74 4.124 56.5 4.186H1Z"/><path stroke="url(#d)" stroke-linecap="round" stroke-linejoin="round" d="M130.5 4.186v138.265H163v-51.45h12c1.494-.033 30.5 50.999 30.5 50.999l38.5-.5-36.5-57c8-3 29-11.5 29-38.5 0-35-33-41.876-50.5-41.814h-55.5Z"/><path stroke="url(#e)" stroke-linecap="round" stroke-linejoin="round" d="M493 1c-38.232 0-73.915 26.761-73.915 72 0 45.239 31.915 73.5 73.915 72 24-1.5 38.5-6 52-16.5l-15-27.242c-9.019 8.241-22.982 11.795-37 11.795-23.576 0-39.506-13.93-39.506-40.053 0-24.85 16.567-40 39.506-40 11.86 0 24.021 3.609 33 11.38l15.67-25.88C528.506 7.2 511.186 1 493 1Z"/><path stroke="url(#f)" stroke-linecap="round" stroke-linejoin="round" d="m698 103-15.5 24c8 6.5 28 18 55.5 18 45.5 0 55-30.5 55-44.5 0-15-7-30.814-40.5-40-23.226-6.368-31.919-9-33.5-16-1.167-5.167 1.4-15.5 21-15.5s31.5 8.667 35 13l16-23.5c-8-7-24-17-51-17-29.5 0-52.5 17.957-52.5 43 0 17 11 32.149 34.5 38.5 35 9.46 38.5 13 39.5 20 .707 4.95-2.5 14.5-22.5 14.5-20.8 0-36-9.667-41-14.5Z"/><path stroke="url(#g)" stroke-linecap="round" stroke-linejoin="round" d="M824.5 103 809 127c8 6.5 28 18 55.5 18 45.5 0 55-30.5 55-44.5 0-15-7-30.814-40.5-40-23.226-6.368-31.919-9-33.5-16-1.167-5.167 1.4-15.5 21-15.5s31.5 8.667 35 13l16-23.5c-8-7-24-17-51-17-29.5 0-52.5 17.957-52.5 43 0 17 11 32.149 34.5 38.5 35 9.46 38.5 13 39.5 20 .707 4.95-2.5 14.5-22.5 14.5-20.8 0-36-9.667-41-14.5Z"/><path stroke="url(#h)" stroke-linecap="round" stroke-linejoin="round" d="M328.418 31.584c-22.939 0-39.507 16.566-39.507 41.416 0 26.124 15.93 42.053 39.507 42.053 23.576 0 39.506-17.203 39.506-42.053 0-24.85-16.567-41.416-39.506-41.416Z"/><path stroke="url(#i)" stroke-linecap="round" stroke-linejoin="round" d="M163 31.5V65h23c6.667 0 18-3 18-17s-11.333-16.5-18-16.5h-23Z"/><path stroke="url(#j)" stroke-linecap="round" stroke-linejoin="round" d="M33.5 32.5v35h23c6.667 0 20-3.5 20-17.5s-13.333-17.5-20-17.5h-23Z"/><path stroke="url(#k)" stroke-linecap="round" stroke-linejoin="round" d="M1513.42 1c-38.23 0-73.92 26.761-73.92 72 0 45.239 34.41 72 73.92 72 39.5 0 72.64-27.398 72.64-72 0-44.602-34.41-72-72.64-72Z"/><path stroke="url(#l)" stroke-linecap="round" stroke-linejoin="round" d="M1847.5 142.451h-97.13V4.186h97.13v28.672h-63.99v25.487h53.16v26.761h-53.16v28.673h63.99v28.672Z"/><path stroke="url(#m)" stroke-linecap="round" stroke-linejoin="round" d="M1186 4.186V142.45h32.5V95h29.5c15.33-.333 46-10 46-46s-35-44.876-52.5-44.814H1186Z"/><path stroke="url(#n)" stroke-linecap="round" stroke-linejoin="round" d="M1315.5 4.186v138.265h32.5v-51.45h12c1.49-.033 30.5 50.999 30.5 50.999l38.5-.5-36.5-57c8-3 29-11.5 29-38.5 0-35-33-41.876-50.5-41.814h-55.5Z"/><path stroke="url(#o)" stroke-linecap="round" stroke-linejoin="round" d="M1678 1c-38.23 0-73.92 26.761-73.92 72 0 45.239 31.92 73.5 73.92 72 24-1.5 38.5-6 52-16.5l-15-27.242c-9.02 8.241-22.98 11.795-37 11.795-23.58 0-39.51-13.93-39.51-40.053 0-24.85 16.57-40 39.51-40 11.86 0 24.02 3.609 33 11.38l15.67-25.88C1713.51 7.2 1696.19 1 1678 1Z"/><path stroke="url(#p)" stroke-linecap="round" stroke-linejoin="round" d="m1883 103-15.5 24c8 6.5 28 18 55.5 18 45.5 0 55-30.5 55-44.5 0-15-7-30.814-40.5-40-23.23-6.368-31.92-9-33.5-16-1.17-5.167 1.4-15.5 21-15.5s31.5 8.667 35 13l16-23.5c-8-7-24-17-51-17-29.5 0-52.5 17.957-52.5 43 0 17 11 32.149 34.5 38.5 35 9.46 38.5 13 39.5 20 .71 4.95-2.5 14.5-22.5 14.5-20.8 0-36-9.667-41-14.5Z"/><path stroke="url(#q)" stroke-linecap="round" stroke-linejoin="round" d="m2009.5 103-15.5 24c8 6.5 28 18 55.5 18 45.5 0 55-30.5 55-44.5 0-15-7-30.814-40.5-40-23.23-6.368-31.92-9-33.5-16-1.17-5.167 1.4-15.5 21-15.5s31.5 8.667 35 13l16-23.5c-8-7-24-17-51-17-29.5 0-52.5 17.957-52.5 43 0 17 11 32.149 34.5 38.5 35 9.46 38.5 13 39.5 20 .71 4.95-2.5 14.5-22.5 14.5-20.8 0-36-9.667-41-14.5Z"/><path stroke="url(#r)" stroke-linecap="round" stroke-linejoin="round" d="M1513.42 31.584c-22.94 0-39.51 16.566-39.51 41.416 0 26.124 15.93 42.053 39.51 42.053 23.57 0 39.5-17.203 39.5-42.053 0-24.85-16.56-41.416-39.5-41.416Z"/><path stroke="url(#s)" stroke-linecap="round" stroke-linejoin="round" d="M1348 31.5V65h23c6.67 0 18-3 18-17s-11.33-16.5-18-16.5h-23Z"/><path stroke="url(#t)" stroke-linecap="round" stroke-linejoin="round" d="M1218.5 32.5v35h23c6.67 0 20-3.5 20-17.5s-13.33-17.5-20-17.5h-23Z"/><path stroke="url(#u)" stroke-linecap="round" stroke-linejoin="round" d="M2698.42 1c-38.23 0-73.92 26.761-73.92 72 0 45.239 34.41 72 73.92 72 39.5 0 72.64-27.398 72.64-72 0-44.602-34.41-72-72.64-72Z"/><path stroke="url(#v)" stroke-linecap="round" stroke-linejoin="round" d="M3032.5 142.451h-97.13V4.186h97.13v28.672h-63.99v25.487h53.16v26.761h-53.16v28.673h63.99v28.672Z"/><path stroke="url(#w)" stroke-linecap="round" stroke-linejoin="round" d="M2371 4.186V142.45h32.5V95h29.5c15.33-.333 46-10 46-46s-35-44.876-52.5-44.814H2371Z"/><path stroke="url(#x)" stroke-linecap="round" stroke-linejoin="round" d="M2500.5 4.186v138.265h32.5v-51.45h12c1.49-.033 30.5 50.999 30.5 50.999l38.5-.5-36.5-57c8-3 29-11.5 29-38.5 0-35-33-41.876-50.5-41.814h-55.5Z"/><path stroke="url(#y)" stroke-linecap="round" stroke-linejoin="round" d="M2863 1c-38.23 0-73.92 26.761-73.92 72 0 45.239 31.92 73.5 73.92 72 24-1.5 38.5-6 52-16.5l-15-27.242c-9.02 8.241-22.98 11.795-37 11.795-23.58 0-39.51-13.93-39.51-40.053 0-24.85 16.57-40 39.51-40 11.86 0 24.02 3.609 33 11.38l15.67-25.88C2898.51 7.2 2881.19 1 2863 1Z"/><path stroke="url(#z)" stroke-linecap="round" stroke-linejoin="round" d="m3068 103-15.5 24c8 6.5 28 18 55.5 18 45.5 0 55-30.5 55-44.5 0-15-7-30.814-40.5-40-23.23-6.368-31.92-9-33.5-16-1.17-5.167 1.4-15.5 21-15.5s31.5 8.667 35 13l16-23.5c-8-7-24-17-51-17-29.5 0-52.5 17.957-52.5 43 0 17 11 32.149 34.5 38.5 35 9.46 38.5 13 39.5 20 .71 4.95-2.5 14.5-22.5 14.5-20.8 0-36-9.667-41-14.5Z"/><path stroke="url(#A)" stroke-linecap="round" stroke-linejoin="round" d="m3194.5 103-15.5 24c8 6.5 28 18 55.5 18 45.5 0 55-30.5 55-44.5 0-15-7-30.814-40.5-40-23.23-6.368-31.92-9-33.5-16-1.17-5.167 1.4-15.5 21-15.5s31.5 8.667 35 13l16-23.5c-8-7-24-17-51-17-29.5 0-52.5 17.957-52.5 43 0 17 11 32.149 34.5 38.5 35 9.46 38.5 13 39.5 20 .71 4.95-2.5 14.5-22.5 14.5-20.8 0-36-9.667-41-14.5Z"/><path stroke="url(#B)" stroke-linecap="round" stroke-linejoin="round" d="M2698.42 31.584c-22.94 0-39.51 16.566-39.51 41.416 0 26.124 15.93 42.053 39.51 42.053 23.57 0 39.5-17.203 39.5-42.053 0-24.85-16.56-41.416-39.5-41.416Z"/><path stroke="url(#C)" stroke-linecap="round" stroke-linejoin="round" d="M2533 31.5V65h23c6.67 0 18-3 18-17s-11.33-16.5-18-16.5h-23Z"/><path stroke="url(#D)" stroke-linecap="round" stroke-linejoin="round" d="M2403.5 32.5v35h23c6.67 0 20-3.5 20-17.5s-13.33-17.5-20-17.5h-23Z"/><defs><linearGradient id="a" x1="170.393" x2="767.183" y1="127.796" y2="-19.288" gradientUnits="userSpaceOnUse"><stop stop-color="#FFA1A1"/><stop offset=".458" stop-color="#EDD1CD"/><stop offset="1" stop-color="#CDE052"/></linearGradient><linearGradient id="b" x1="170.393" x2="767.183" y1="127.796" y2="-19.288" gradientUnits="userSpaceOnUse"><stop stop-color="#FFA1A1"/><stop offset=".458" stop-color="#EDD1CD"/><stop offset="1" stop-color="#CDE052"/></linearGradient><linearGradient id="c" x1="170.393" x2="767.183" y1="127.796" y2="-19.288" gradientUnits="userSpaceOnUse"><stop stop-color="#FFA1A1"/><stop offset=".458" stop-color="#EDD1CD"/><stop offset="1" stop-color="#CDE052"/></linearGradient><linearGradient id="d" x1="170.393" x2="767.183" y1="127.796" y2="-19.288" gradientUnits="userSpaceOnUse"><stop stop-color="#FFA1A1"/><stop offset=".458" stop-color="#EDD1CD"/><stop offset="1" stop-color="#CDE052"/></linearGradient><linearGradient id="e" x1="170.393" x2="767.183" y1="127.796" y2="-19.288" gradientUnits="userSpaceOnUse"><stop stop-color="#FFA1A1"/><stop offset=".458" stop-color="#EDD1CD"/><stop offset="1" stop-color="#CDE052"/></linearGradient><linearGradient id="f" x1="170.393" x2="767.183" y1="127.796" y2="-19.288" gradientUnits="userSpaceOnUse"><stop stop-color="#FFA1A1"/><stop offset=".458" stop-color="#EDD1CD"/><stop offset="1" stop-color="#CDE052"/></linearGradient><linearGradient id="g" x1="170.393" x2="767.183" y1="127.796" y2="-19.288" gradientUnits="userSpaceOnUse"><stop stop-color="#FFA1A1"/><stop offset=".458" stop-color="#EDD1CD"/><stop offset="1" stop-color="#CDE052"/></linearGradient><linearGradient id="h" x1="170.393" x2="767.183" y1="127.796" y2="-19.288" gradientUnits="userSpaceOnUse"><stop stop-color="#FFA1A1"/><stop offset=".458" stop-color="#EDD1CD"/><stop offset="1" stop-color="#CDE052"/></linearGradient><linearGradient id="i" x1="170.393" x2="767.183" y1="127.796" y2="-19.288" gradientUnits="userSpaceOnUse"><stop stop-color="#FFA1A1"/><stop offset=".458" stop-color="#EDD1CD"/><stop offset="1" stop-color="#CDE052"/></linearGradient><linearGradient id="j" x1="170.393" x2="767.183" y1="127.796" y2="-19.288" gradientUnits="userSpaceOnUse"><stop stop-color="#FFA1A1"/><stop offset=".458" stop-color="#EDD1CD"/><stop offset="1" stop-color="#CDE052"/></linearGradient><linearGradient id="k" x1="1355.39" x2="1952.18" y1="127.796" y2="-19.288" gradientUnits="userSpaceOnUse"><stop stop-color="#FFA1A1"/><stop offset=".458" stop-color="#EDD1CD"/><stop offset="1" stop-color="#CDE052"/></linearGradient><linearGradient id="l" x1="1355.39" x2="1952.18" y1="127.796" y2="-19.288" gradientUnits="userSpaceOnUse"><stop stop-color="#FFA1A1"/><stop offset=".458" stop-color="#EDD1CD"/><stop offset="1" stop-color="#CDE052"/></linearGradient><linearGradient id="m" x1="1355.39" x2="1952.18" y1="127.796" y2="-19.288" gradientUnits="userSpaceOnUse"><stop stop-color="#FFA1A1"/><stop offset=".458" stop-color="#EDD1CD"/><stop offset="1" stop-color="#CDE052"/></linearGradient><linearGradient id="n" x1="1355.39" x2="1952.18" y1="127.796" y2="-19.288" gradientUnits="userSpaceOnUse"><stop stop-color="#FFA1A1"/><stop offset=".458" stop-color="#EDD1CD"/><stop offset="1" stop-color="#CDE052"/></linearGradient><linearGradient id="o" x1="1355.39" x2="1952.18" y1="127.796" y2="-19.288" gradientUnits="userSpaceOnUse"><stop stop-color="#FFA1A1"/><stop offset=".458" stop-color="#EDD1CD"/><stop offset="1" stop-color="#CDE052"/></linearGradient><linearGradient id="p" x1="1355.39" x2="1952.18" y1="127.796" y2="-19.288" gradientUnits="userSpaceOnUse"><stop stop-color="#FFA1A1"/><stop offset=".458" stop-color="#EDD1CD"/><stop offset="1" stop-color="#CDE052"/></linearGradient><linearGradient id="q" x1="1355.39" x2="1952.18" y1="127.796" y2="-19.288" gradientUnits="userSpaceOnUse"><stop stop-color="#FFA1A1"/><stop offset=".458" stop-color="#EDD1CD"/><stop offset="1" stop-color="#CDE052"/></linearGradient><linearGradient id="r" x1="1355.39" x2="1952.18" y1="127.796" y2="-19.288" gradientUnits="userSpaceOnUse"><stop stop-color="#FFA1A1"/><stop offset=".458" stop-color="#EDD1CD"/><stop offset="1" stop-color="#CDE052"/></linearGradient><linearGradient id="s" x1="1355.39" x2="1952.18" y1="127.796" y2="-19.288" gradientUnits="userSpaceOnUse"><stop stop-color="#FFA1A1"/><stop offset=".458" stop-color="#EDD1CD"/><stop offset="1" stop-color="#CDE052"/></linearGradient><linearGradient id="t" x1="1355.39" x2="1952.18" y1="127.796" y2="-19.288" gradientUnits="userSpaceOnUse"><stop stop-color="#FFA1A1"/><stop offset=".458" stop-color="#EDD1CD"/><stop offset="1" stop-color="#CDE052"/></linearGradient><linearGradient id="u" x1="2540.39" x2="3137.18" y1="127.796" y2="-19.288" gradientUnits="userSpaceOnUse"><stop stop-color="#FFA1A1"/><stop offset=".458" stop-color="#EDD1CD"/><stop offset="1" stop-color="#CDE052"/></linearGradient><linearGradient id="v" x1="2540.39" x2="3137.18" y1="127.796" y2="-19.288" gradientUnits="userSpaceOnUse"><stop stop-color="#FFA1A1"/><stop offset=".458" stop-color="#EDD1CD"/><stop offset="1" stop-color="#CDE052"/></linearGradient><linearGradient id="w" x1="2540.39" x2="3137.18" y1="127.796" y2="-19.288" gradientUnits="userSpaceOnUse"><stop stop-color="#FFA1A1"/><stop offset=".458" stop-color="#EDD1CD"/><stop offset="1" stop-color="#CDE052"/></linearGradient><linearGradient id="x" x1="2540.39" x2="3137.18" y1="127.796" y2="-19.288" gradientUnits="userSpaceOnUse"><stop stop-color="#FFA1A1"/><stop offset=".458" stop-color="#EDD1CD"/><stop offset="1" stop-color="#CDE052"/></linearGradient><linearGradient id="y" x1="2540.39" x2="3137.18" y1="127.796" y2="-19.288" gradientUnits="userSpaceOnUse"><stop stop-color="#FFA1A1"/><stop offset=".458" stop-color="#EDD1CD"/><stop offset="1" stop-color="#CDE052"/></linearGradient><linearGradient id="z" x1="2540.39" x2="3137.18" y1="127.796" y2="-19.288" gradientUnits="userSpaceOnUse"><stop stop-color="#FFA1A1"/><stop offset=".458" stop-color="#EDD1CD"/><stop offset="1" stop-color="#CDE052"/></linearGradient><linearGradient id="A" x1="2540.39" x2="3137.18" y1="127.796" y2="-19.288" gradientUnits="userSpaceOnUse"><stop stop-color="#FFA1A1"/><stop offset=".458" stop-color="#EDD1CD"/><stop offset="1" stop-color="#CDE052"/></linearGradient><linearGradient id="B" x1="2540.39" x2="3137.18" y1="127.796" y2="-19.288" gradientUnits="userSpaceOnUse"><stop stop-color="#FFA1A1"/><stop offset=".458" stop-color="#EDD1CD"/><stop offset="1" stop-color="#CDE052"/></linearGradient><linearGradient id="C" x1="2540.39" x2="3137.18" y1="127.796" y2="-19.288" gradientUnits="userSpaceOnUse"><stop stop-color="#FFA1A1"/><stop offset=".458" stop-color="#EDD1CD"/><stop offset="1" stop-color="#CDE052"/></linearGradient><linearGradient id="D" x1="2540.39" x2="3137.18" y1="127.796" y2="-19.288" gradientUnits="userSpaceOnUse"><stop stop-color="#FFA1A1"/><stop offset=".458" stop-color="#EDD1CD"/><stop offset="1" stop-color="#CDE052"/></linearGradient></defs></svg>