<?xml version="1.0" encoding="UTF-8"?>
<svg id="Ebene_1" xmlns="http://www.w3.org/2000/svg" xmlns:xlink="http://www.w3.org/1999/xlink" version="1.1" viewBox="0 0 2830 146">
  <!-- Generator: Adobe Illustrator 29.1.0, SVG Export Plug-In . SVG Version: 2.1.0 Build 142)  -->
  <defs>
    <style>
      .st0 {
        stroke: url(#Unbenannter_Verlauf_2);
      }

      .st0, .st1, .st2, .st3, .st4, .st5, .st6, .st7, .st8, .st9, .st10, .st11, .st12, .st13, .st14, .st15 {
        fill: none;
        stroke-miterlimit: 10;
      }

      .st1 {
        stroke: url(#Unbenannter_Verlauf_27);
      }

      .st2 {
        stroke: url(#Unbenannter_Verlauf_26);
      }

      .st3 {
        stroke: url(#Unbenannter_Verlauf_28);
      }

      .st4 {
        stroke: url(#Unbenannter_Verlauf_29);
      }

      .st5 {
        stroke: url(#Unbenannter_Verlauf_25);
      }

      .st6 {
        stroke: url(#Unbenannter_Verlauf_22);
      }

      .st7 {
        stroke: url(#Unbenannter_Verlauf_24);
      }

      .st8 {
        stroke: url(#Unbenannter_Verlauf_21);
      }

      .st9 {
        stroke: url(#Unbenannter_Verlauf_23);
      }

      .st10 {
        stroke: url(#Unbenannter_Verlauf_212);
      }

      .st11 {
        stroke: url(#Unbenannter_Verlauf_211);
      }

      .st12 {
        stroke: url(#Unbenannter_Verlauf_210);
      }

      .st13 {
        stroke: url(#Unbenannter_Verlauf_213);
      }

      .st14 {
        stroke: url(#Unbenannter_Verlauf_215);
      }

      .st15 {
        stroke: url(#Unbenannter_Verlauf_214);
      }
    </style>
    <linearGradient id="Unbenannter_Verlauf_2" data-name="Unbenannter Verlauf 2" x1=".3" y1="70.1" x2="111.1" y2="70.1" gradientUnits="userSpaceOnUse">
      <stop offset="0" stop-color="#ffa1a1"/>
      <stop offset=".5" stop-color="#edd1cd"/>
      <stop offset="1" stop-color="#cde052"/>
    </linearGradient>
    <linearGradient id="Unbenannter_Verlauf_21" data-name="Unbenannter Verlauf 2" x1="150.9" x2="268.2" xlink:href="#Unbenannter_Verlauf_2"/>
    <linearGradient id="Unbenannter_Verlauf_22" data-name="Unbenannter Verlauf 2" x1="298.9" y1="70.1" x2="443.2" y2="70.1" xlink:href="#Unbenannter_Verlauf_2"/>
    <linearGradient id="Unbenannter_Verlauf_23" data-name="Unbenannter Verlauf 2" x1="471" y1="71.5" x2="561.9" y2="71.5" xlink:href="#Unbenannter_Verlauf_2"/>
    <linearGradient id="Unbenannter_Verlauf_24" data-name="Unbenannter Verlauf 2" x1="612.6" x2="713" xlink:href="#Unbenannter_Verlauf_2"/>
    <linearGradient id="Unbenannter_Verlauf_25" data-name="Unbenannter Verlauf 2" x1="758.9" x2="891.2" xlink:href="#Unbenannter_Verlauf_2"/>
    <linearGradient id="Unbenannter_Verlauf_26" data-name="Unbenannter Verlauf 2" x1="913.8" x2="1021.7" xlink:href="#Unbenannter_Verlauf_2"/>
    <linearGradient id="Unbenannter_Verlauf_27" data-name="Unbenannter Verlauf 2" x1="1060.6" x2="1161" xlink:href="#Unbenannter_Verlauf_2"/>
    <linearGradient id="Unbenannter_Verlauf_28" data-name="Unbenannter Verlauf 2" x1="1432.3" y1="70.1" x2="1543.2" y2="70.1" xlink:href="#Unbenannter_Verlauf_2"/>
    <linearGradient id="Unbenannter_Verlauf_29" data-name="Unbenannter Verlauf 2" x1="1583" y1="70.1" x2="1700.3" y2="70.1" xlink:href="#Unbenannter_Verlauf_2"/>
    <linearGradient id="Unbenannter_Verlauf_210" data-name="Unbenannter Verlauf 2" x1="1731" x2="1875.3" xlink:href="#Unbenannter_Verlauf_2"/>
    <linearGradient id="Unbenannter_Verlauf_211" data-name="Unbenannter Verlauf 2" x1="1903.1" y1="71.5" x2="1994" y2="71.5" xlink:href="#Unbenannter_Verlauf_2"/>
    <linearGradient id="Unbenannter_Verlauf_212" data-name="Unbenannter Verlauf 2" x1="2044.7" y1="70.1" x2="2145.1" y2="70.1" xlink:href="#Unbenannter_Verlauf_2"/>
    <linearGradient id="Unbenannter_Verlauf_213" data-name="Unbenannter Verlauf 2" x1="2191" y1="70.1" x2="2323.3" y2="70.1" xlink:href="#Unbenannter_Verlauf_2"/>
    <linearGradient id="Unbenannter_Verlauf_214" data-name="Unbenannter Verlauf 2" x1="2345.9" y1="70.1" x2="2453.8" y2="70.1" xlink:href="#Unbenannter_Verlauf_2"/>
    <linearGradient id="Unbenannter_Verlauf_215" data-name="Unbenannter Verlauf 2" x1="2492.7" y1="70.1" x2="2593.1" y2="70.1" xlink:href="#Unbenannter_Verlauf_2"/>
  </defs>
  <g>
    <path class="st0" d="M.8,136.6V3.6h56.8c10.2,0,19.3,1.8,27.3,5.4s14.3,8.9,18.9,15.7c4.6,6.9,6.9,15.2,6.9,24.8s-2.1,18-6.4,24.9c-4.2,6.8-10.4,12.1-18.4,15.7-8,3.6-17.8,5.4-29.2,5.4h-17.5v41H.8ZM39.1,63.8h16c5.3,0,9.5-1,12.5-3,3-2,4.6-5.6,4.6-10.7s-1.6-9-4.8-10.9c-3.2-2-7.2-2.9-12.2-2.9h-16.1v27.5Z"/>
    <path class="st8" d="M151.4,136.6V3.6h56.4c10.4,0,19.5,1.6,27.2,4.8,7.8,3.2,13.8,7.9,18,14.1,4.3,6.2,6.4,13.7,6.4,22.5s-1.1,12.1-3.4,17c-2.3,4.9-5.3,9-9.1,12.4-3.8,3.4-8,6-12.5,7.9l32.9,54.3h-45.2l-24.9-45.8h-7.4v45.8h-38.4ZM189.8,60.6h14.1c5.3,0,9.4-1,12.4-2.9,3-1.9,4.5-5.3,4.5-10.1s-1.5-8.2-4.5-10.1c-3-1.9-7.1-2.8-12.2-2.8h-14.2v25.8Z"/>
    <path class="st6" d="M371.1,139.4c-10.4,0-20-1.8-28.7-5.3-8.7-3.5-16.3-8.4-22.8-14.7-6.4-6.3-11.4-13.6-14.9-22-3.5-8.4-5.3-17.5-5.3-27.4s1.8-19,5.3-27.5c3.5-8.4,8.5-15.8,14.9-22,6.4-6.3,14-11.1,22.8-14.6,8.7-3.5,18.3-5.2,28.7-5.2s19.9,1.8,28.6,5.3c8.7,3.5,16.3,8.5,22.7,14.8,6.4,6.3,11.4,13.7,15,22.1,3.5,8.4,5.3,17.4,5.3,27.1s-1.8,18.9-5.3,27.4c-3.5,8.4-8.5,15.8-15,22-6.4,6.3-14,11.2-22.7,14.7-8.7,3.5-18.3,5.3-28.6,5.3ZM371.1,103.5c4.6,0,8.8-.8,12.7-2.3,3.8-1.6,7.1-3.8,9.9-6.7,2.8-2.9,4.9-6.4,6.5-10.5,1.5-4.1,2.3-8.7,2.3-13.9s-1.3-12.8-4-17.8c-2.7-5-6.4-8.9-11.1-11.6-4.7-2.7-10.2-4.1-16.3-4.1s-8.9.8-12.7,2.3c-3.8,1.6-7.1,3.8-9.9,6.7-2.8,2.9-4.9,6.4-6.5,10.5-1.5,4.1-2.3,8.7-2.3,13.9s1.3,12.8,4,17.8c2.7,5,6.3,8.9,11.1,11.6,4.7,2.7,10.1,4.1,16.3,4.1Z"/>
    <path class="st9" d="M511.9,139.4c-8.1,0-15.6-1.1-22.4-3.2-6.8-2.2-12.8-5-17.9-8.6l10.8-30.8c4.6,2.5,8.8,4.4,12.7,5.7,3.9,1.3,7.6,1.9,11.3,1.9,5.1,0,9.2-1.5,12.2-4.6,3-3.1,4.5-7.9,4.5-14.4V3.6h38.4v90.4c0,8.9-1.9,16.8-5.8,23.6-3.9,6.8-9.5,12.1-16.9,16-7.4,3.9-16.3,5.8-26.8,5.8Z"/>
    <path class="st7" d="M613.1,136.6V3.6h98.6v33.1h-60.2v17.3h49.4v30.2h-49.4v19h61v33.4h-99.4Z"/>
    <path class="st5" d="M759.4,136.6V3.6h38.4v49.2l38.6-49.2h48.1l-49.6,61.8,55.3,71.3h-49.2l-31.4-42.4-11.8,12.7v29.6h-38.4Z"/>
    <path class="st2" d="M948.5,136.6V38.5h-34.2V3.6h107v35h-34.2v98h-38.6Z"/>
    <path class="st1" d="M1061.1,136.6V3.6h98.6v33.1h-60.2v17.3h49.4v30.2h-49.4v19h61v33.4h-99.4Z"/>
  </g>
  <g>
    <path class="st3" d="M1432.8,136.6V3.6h56.8c10.2,0,19.3,1.8,27.3,5.4s14.3,8.9,18.9,15.7c4.6,6.9,6.9,15.2,6.9,24.8s-2.1,18-6.4,24.9c-4.2,6.8-10.4,12.1-18.4,15.7-8,3.6-17.8,5.4-29.2,5.4h-17.5v41h-38.4ZM1471.2,63.8h16c5.3,0,9.5-1,12.5-3,3-2,4.6-5.6,4.6-10.7s-1.6-9-4.8-10.9c-3.2-2-7.2-2.9-12.2-2.9h-16.1v27.5Z"/>
    <path class="st4" d="M1583.5,136.6V3.6h56.4c10.4,0,19.5,1.6,27.2,4.8,7.8,3.2,13.8,7.9,18,14.1,4.3,6.2,6.4,13.7,6.4,22.5s-1.1,12.1-3.4,17c-2.3,4.9-5.3,9-9.1,12.3-3.8,3.4-8,6-12.5,7.9l32.9,54.3h-45.2l-24.9-45.8h-7.4v45.8h-38.4ZM1621.9,60.6h14.1c5.3,0,9.4-1,12.4-2.9,3-1.9,4.5-5.3,4.5-10.1s-1.5-8.2-4.5-10.1c-3-1.9-7.1-2.8-12.2-2.8h-14.2v25.8Z"/>
    <path class="st12" d="M1803.2,139.4c-10.4,0-20-1.8-28.7-5.3s-16.3-8.4-22.8-14.7c-6.4-6.3-11.4-13.6-14.9-22-3.5-8.4-5.3-17.5-5.3-27.4s1.8-19,5.3-27.5c3.5-8.4,8.5-15.8,14.9-22,6.4-6.3,14-11.1,22.8-14.6,8.7-3.5,18.3-5.2,28.7-5.2s19.9,1.8,28.6,5.3c8.7,3.5,16.3,8.5,22.7,14.8,6.4,6.3,11.4,13.7,15,22.1,3.5,8.4,5.3,17.4,5.3,27.1s-1.8,18.9-5.3,27.4c-3.5,8.4-8.5,15.8-15,22-6.4,6.3-14,11.2-22.7,14.7-8.7,3.5-18.3,5.3-28.6,5.3ZM1803.2,103.5c4.6,0,8.8-.8,12.7-2.3,3.8-1.6,7.1-3.8,9.9-6.7,2.8-2.9,4.9-6.4,6.5-10.5,1.5-4.1,2.3-8.7,2.3-13.9s-1.3-12.8-4-17.8c-2.7-5-6.4-8.9-11.1-11.6-4.7-2.7-10.2-4.1-16.3-4.1s-8.9.8-12.7,2.3c-3.8,1.6-7.1,3.8-9.9,6.7-2.8,2.9-4.9,6.4-6.5,10.5-1.5,4.1-2.3,8.7-2.3,13.9s1.3,12.8,4,17.8c2.7,5,6.3,8.9,11.1,11.6,4.7,2.7,10.1,4.1,16.3,4.1Z"/>
    <path class="st11" d="M1943.9,139.4c-8.1,0-15.6-1.1-22.4-3.2-6.8-2.2-12.8-5-17.9-8.6l10.8-30.8c4.6,2.5,8.8,4.4,12.7,5.7,3.9,1.3,7.6,1.9,11.3,1.9,5.1,0,9.2-1.5,12.2-4.6,3-3.1,4.5-7.9,4.5-14.4V3.6h38.4v90.4c0,8.9-1.9,16.8-5.8,23.6-3.9,6.8-9.5,12.1-16.9,16-7.4,3.9-16.3,5.8-26.8,5.8Z"/>
    <path class="st10" d="M2045.2,136.6V3.6h98.6v33.1h-60.2v17.3h49.4v30.2h-49.4v19h61v33.4h-99.4Z"/>
    <path class="st13" d="M2191.5,136.6V3.6h38.4v49.2l38.6-49.2h48.1l-49.6,61.8,55.3,71.2h-49.2l-31.4-42.4-11.8,12.7v29.6h-38.4Z"/>
    <path class="st15" d="M2380.6,136.6V38.5h-34.2V3.6h107v35h-34.2v98h-38.6Z"/>
    <path class="st14" d="M2493.2,136.6V3.6h98.6v33.1h-60.2v17.3h49.4v30.2h-49.4v19h61v33.4h-99.4Z"/>
  </g>
</svg>