<?xml version="1.0" encoding="UTF-8"?>
<svg id="Ebene_1" xmlns="http://www.w3.org/2000/svg" xmlns:xlink="http://www.w3.org/1999/xlink" version="1.1" viewBox="0 0 3738 146">
  <!-- Generator: Adobe Illustrator 29.1.0, SVG Export Plug-In . SVG Version: 2.1.0 Build 142)  -->
  <defs>
    <style>
      .st0 {
        stroke: url(#Unbenannter_Verlauf2);
      }

      .st0, .st1, .st2, .st3, .st4, .st5, .st6, .st7, .st8, .st9, .st10, .st11, .st12, .st13, .st14, .st15, .st16, .st17, .st18, .st19, .st20 {
        fill: none;
      }

      .st1 {
        stroke: url(#Unbenannter_Verlauf1);
      }

      .st2 {
        stroke: url(#Unbenannter_Verlauf4);
      }

      .st3 {
        stroke: url(#Unbenannter_Verlauf6);
      }

      .st4 {
        stroke: url(#Unbenannter_Verlauf7);
      }

      .st5 {
        stroke: url(#Unbenannter_Verlauf9);
      }

      .st6 {
        stroke: url(#Unbenannter_Verlauf3);
      }

      .st7 {
        stroke: url(#Unbenannter_Verlauf5);
      }

      .st8 {
        stroke: url(#Unbenannter_Verlauf8);
      }

      .st9 {
        stroke: url(#Unbenannter_Verlauf);
      }

      .st10 {
        stroke: url(#Unbenannter_Verlauf20);
      }

      .st11 {
        stroke: url(#Unbenannter_Verlauf18);
      }

      .st12 {
        stroke: url(#Unbenannter_Verlauf14);
      }

      .st13 {
        stroke: url(#Unbenannter_Verlauf12);
      }

      .st14 {
        stroke: url(#Unbenannter_Verlauf15);
      }

      .st15 {
        stroke: url(#Unbenannter_Verlauf13);
      }

      .st16 {
        stroke: url(#Unbenannter_Verlauf16);
      }

      .st17 {
        stroke: url(#Unbenannter_Verlauf19);
      }

      .st18 {
        stroke: url(#Unbenannter_Verlauf10);
      }

      .st19 {
        stroke: url(#Unbenannter_Verlauf17);
      }

      .st20 {
        stroke: url(#Unbenannter_Verlauf11);
      }
    </style>
    <linearGradient id="Unbenannter_Verlauf" data-name="Unbenannter Verlauf" x1="146" y1="69.9" x2="278.2" y2="69.9" gradientUnits="userSpaceOnUse">
      <stop offset="0" stop-color="#ffa1a1"/>
      <stop offset=".5" stop-color="#edd1cd"/>
      <stop offset="1" stop-color="#cde052"/>
    </linearGradient>
    <linearGradient id="Unbenannter_Verlauf1" data-name="Unbenannter Verlauf" x1="293.2" y1="69.9" x2="437.5" y2="69.9" xlink:href="#Unbenannter_Verlauf"/>
    <linearGradient id="Unbenannter_Verlauf2" data-name="Unbenannter Verlauf" x1="468.8" x2="591.8" xlink:href="#Unbenannter_Verlauf"/>
    <linearGradient id="Unbenannter_Verlauf3" data-name="Unbenannter Verlauf" x1="619.3" x2="727.3" xlink:href="#Unbenannter_Verlauf"/>
    <linearGradient id="Unbenannter_Verlauf4" data-name="Unbenannter Verlauf" x1="731.2" x2="874.9" xlink:href="#Unbenannter_Verlauf"/>
    <linearGradient id="Unbenannter_Verlauf5" data-name="Unbenannter Verlauf" x1="899.3" x2="1031.6" xlink:href="#Unbenannter_Verlauf"/>
    <linearGradient id="Unbenannter_Verlauf6" data-name="Unbenannter Verlauf" x1="1042.8" x2="1150.8" xlink:href="#Unbenannter_Verlauf"/>
    <linearGradient id="Unbenannter_Verlauf7" data-name="Unbenannter Verlauf" x1="1367.8" y1="70.4" x2="1500" y2="70.4" xlink:href="#Unbenannter_Verlauf"/>
    <linearGradient id="Unbenannter_Verlauf8" data-name="Unbenannter Verlauf" x1="1515" y1="70.4" x2="1659.3" y2="70.4" xlink:href="#Unbenannter_Verlauf"/>
    <linearGradient id="Unbenannter_Verlauf9" data-name="Unbenannter Verlauf" x1="1690.6" y1="70.4" x2="1813.6" y2="70.4" xlink:href="#Unbenannter_Verlauf"/>
    <linearGradient id="Unbenannter_Verlauf10" data-name="Unbenannter Verlauf" x1="1841.1" y1="70.4" x2="1949" y2="70.4" xlink:href="#Unbenannter_Verlauf"/>
    <linearGradient id="Unbenannter_Verlauf11" data-name="Unbenannter Verlauf" x1="1952.9" y1="70.4" x2="2096.7" y2="70.4" xlink:href="#Unbenannter_Verlauf"/>
    <linearGradient id="Unbenannter_Verlauf12" data-name="Unbenannter Verlauf" x1="2121.1" y1="70.4" x2="2253.4" y2="70.4" xlink:href="#Unbenannter_Verlauf"/>
    <linearGradient id="Unbenannter_Verlauf13" data-name="Unbenannter Verlauf" x1="2264.6" y1="70.4" x2="2372.5" y2="70.4" xlink:href="#Unbenannter_Verlauf"/>
    <linearGradient id="Unbenannter_Verlauf14" data-name="Unbenannter Verlauf" x1="2561.3" y1="69.9" x2="2693.5" y2="69.9" xlink:href="#Unbenannter_Verlauf"/>
    <linearGradient id="Unbenannter_Verlauf15" data-name="Unbenannter Verlauf" x1="2708.5" y1="69.9" x2="2852.8" y2="69.9" xlink:href="#Unbenannter_Verlauf"/>
    <linearGradient id="Unbenannter_Verlauf16" data-name="Unbenannter Verlauf" x1="2884.1" y1="69.9" x2="3007.1" y2="69.9" xlink:href="#Unbenannter_Verlauf"/>
    <linearGradient id="Unbenannter_Verlauf17" data-name="Unbenannter Verlauf" x1="3034.6" y1="69.9" x2="3142.5" y2="69.9" xlink:href="#Unbenannter_Verlauf"/>
    <linearGradient id="Unbenannter_Verlauf18" data-name="Unbenannter Verlauf" x1="3146.5" y1="69.9" x2="3290.2" y2="69.9" xlink:href="#Unbenannter_Verlauf"/>
    <linearGradient id="Unbenannter_Verlauf19" data-name="Unbenannter Verlauf" x1="3314.6" y1="69.9" x2="3446.9" y2="69.9" xlink:href="#Unbenannter_Verlauf"/>
    <linearGradient id="Unbenannter_Verlauf20" data-name="Unbenannter Verlauf" x1="3458.1" y1="69.9" x2="3566.1" y2="69.9" xlink:href="#Unbenannter_Verlauf"/>
  </defs>
  <g>
    <path class="st9" d="M146.5,136.4V3.4h38.4v49.2L223.5,3.4h48.1l-49.6,61.8,55.3,71.2h-49.2l-31.4-42.4-11.8,12.7v29.6h-38.4Z"/>
    <path class="st1" d="M365.4,139.2c-10.4,0-20-1.8-28.7-5.3-8.7-3.5-16.3-8.4-22.8-14.7-6.4-6.3-11.4-13.6-14.9-22-3.5-8.4-5.3-17.5-5.3-27.4s1.8-19,5.3-27.5c3.5-8.4,8.5-15.8,14.9-22,6.4-6.3,14-11.1,22.8-14.6,8.7-3.5,18.3-5.2,28.7-5.2s19.9,1.8,28.6,5.3c8.7,3.5,16.3,8.5,22.7,14.8,6.4,6.3,11.4,13.7,15,22.1,3.5,8.4,5.3,17.4,5.3,27.1s-1.8,18.9-5.3,27.4c-3.5,8.4-8.5,15.8-15,22-6.4,6.3-14,11.2-22.7,14.7-8.7,3.5-18.3,5.3-28.6,5.3ZM365.4,103.3c4.6,0,8.8-.8,12.7-2.3,3.8-1.6,7.1-3.8,9.9-6.7,2.8-2.9,4.9-6.4,6.5-10.5,1.5-4.1,2.3-8.7,2.3-13.9s-1.3-12.8-4-17.8c-2.7-5-6.4-8.9-11.1-11.6-4.7-2.7-10.2-4.1-16.3-4.1s-8.9.8-12.7,2.3c-3.8,1.6-7.1,3.8-9.9,6.7-2.8,2.9-4.9,6.4-6.5,10.5-1.5,4.1-2.3,8.7-2.3,13.9s1.3,12.8,4,17.8c2.7,5,6.3,8.9,11.1,11.6,4.7,2.7,10.1,4.1,16.3,4.1Z"/>
    <path class="st0" d="M469.3,136.4V3.4h38.4l46.5,71.4V3.4h37.1v133h-38.4l-46.5-72.6v72.6h-37Z"/>
    <path class="st6" d="M654,136.4V38.3h-34.2V3.4h107v35h-34.2v98h-38.6Z"/>
    <path class="st2" d="M731.9,136.4L780.3,3.4h45.6l48.3,133h-43.3l-7.4-23.8h-42l-7.4,23.8h-42.2ZM789.6,80.9h25.5l-12.5-38-12.9,38Z"/>
    <path class="st7" d="M899.8,136.4V3.4h38.4v49.2l38.6-49.2h48.1l-49.6,61.8,55.3,71.2h-49.2l-31.4-42.4-11.8,12.7v29.6h-38.4Z"/>
    <path class="st3" d="M1077.5,136.4V38.3h-34.2V3.4h107v35h-34.2v98h-38.6Z"/>
  </g>
  <g>
    <path class="st4" d="M1368.3,136.9V3.9h38.4v49.2l38.6-49.2h48.1l-49.6,61.8,55.3,71.3h-49.2l-31.4-42.4-11.8,12.7v29.6h-38.4Z"/>
    <path class="st8" d="M1587.2,139.8c-10.4,0-20-1.8-28.7-5.3-8.7-3.5-16.3-8.4-22.8-14.7-6.4-6.3-11.4-13.6-14.9-22-3.5-8.4-5.3-17.5-5.3-27.4s1.8-19,5.3-27.5c3.5-8.4,8.5-15.8,14.9-22,6.4-6.3,14-11.1,22.8-14.6,8.7-3.5,18.3-5.2,28.7-5.2s19.9,1.8,28.6,5.3c8.7,3.5,16.3,8.5,22.7,14.8,6.4,6.3,11.4,13.7,15,22.1,3.5,8.4,5.3,17.4,5.3,27.1s-1.8,18.9-5.3,27.4c-3.5,8.4-8.5,15.8-15,22-6.4,6.3-14,11.2-22.7,14.7-8.7,3.5-18.3,5.3-28.6,5.3ZM1587.2,103.8c4.6,0,8.8-.8,12.7-2.3,3.8-1.6,7.1-3.8,9.9-6.7,2.8-2.9,4.9-6.4,6.5-10.5,1.5-4.1,2.3-8.7,2.3-13.9s-1.3-12.8-4-17.8c-2.7-5-6.4-8.9-11.1-11.6-4.7-2.7-10.2-4.1-16.3-4.1s-8.9.8-12.7,2.3c-3.8,1.6-7.1,3.8-9.9,6.7-2.8,2.9-4.9,6.4-6.5,10.5-1.5,4.1-2.3,8.7-2.3,13.9s1.3,12.8,4,17.8c2.7,5,6.3,8.9,11.1,11.6,4.7,2.7,10.1,4.1,16.3,4.1Z"/>
    <path class="st5" d="M1691.1,136.9V3.9h38.4l46.5,71.4V3.9h37.1v133h-38.4l-46.5-72.6v72.6h-37Z"/>
    <path class="st18" d="M1875.8,136.9V38.9h-34.2V3.9h107v35h-34.2v98h-38.6Z"/>
    <path class="st20" d="M1953.7,136.9L2002.1,3.9h45.6l48.3,133h-43.3l-7.4-23.8h-42l-7.4,23.8h-42.2ZM2011.4,81.4h25.5l-12.5-38-12.9,38Z"/>
    <path class="st13" d="M2121.6,136.9V3.9h38.4v49.2l38.6-49.2h48.1l-49.6,61.8,55.3,71.3h-49.2l-31.4-42.4-11.8,12.7v29.6h-38.4Z"/>
    <path class="st15" d="M2299.3,136.9V38.9h-34.2V3.9h107v35h-34.2v98h-38.6Z"/>
  </g>
  <g>
    <path class="st12" d="M2561.8,136.4V3.4h38.4v49.2l38.6-49.2h48.1l-49.6,61.8,55.3,71.2h-49.2l-31.3-42.4-11.8,12.7v29.6h-38.4Z"/>
    <path class="st14" d="M2780.7,139.2c-10.4,0-20-1.8-28.7-5.3-8.7-3.5-16.3-8.4-22.8-14.7-6.4-6.3-11.4-13.6-14.9-22-3.5-8.4-5.3-17.5-5.3-27.4s1.8-19,5.3-27.5c3.5-8.4,8.5-15.8,14.9-22,6.4-6.3,14-11.1,22.8-14.6,8.7-3.5,18.3-5.2,28.7-5.2s19.9,1.8,28.6,5.3c8.7,3.5,16.3,8.5,22.7,14.8,6.4,6.3,11.4,13.7,15,22.1,3.5,8.4,5.3,17.4,5.3,27.1s-1.8,18.9-5.3,27.4c-3.5,8.4-8.5,15.8-15,22-6.4,6.3-14,11.2-22.7,14.7-8.7,3.5-18.3,5.3-28.6,5.3ZM2780.7,103.3c4.6,0,8.8-.8,12.7-2.3,3.8-1.6,7.1-3.8,9.9-6.7,2.8-2.9,4.9-6.4,6.5-10.5,1.5-4.1,2.3-8.7,2.3-13.9s-1.3-12.8-4-17.8c-2.7-5-6.4-8.9-11.1-11.6-4.7-2.7-10.2-4.1-16.3-4.1s-8.9.8-12.7,2.3c-3.8,1.6-7.1,3.8-9.9,6.7-2.8,2.9-4.9,6.4-6.5,10.5-1.5,4.1-2.3,8.7-2.3,13.9s1.3,12.8,4,17.8c2.7,5,6.3,8.9,11.1,11.6,4.7,2.7,10.1,4.1,16.3,4.1Z"/>
    <path class="st16" d="M2884.6,136.4V3.4h38.4l46.5,71.4V3.4h37v133h-38.4l-46.5-72.6v72.6h-37Z"/>
    <path class="st19" d="M3069.3,136.4V38.4h-34.2V3.4h107v35h-34.2v98h-38.6Z"/>
    <path class="st11" d="M3147.2,136.4l48.5-133h45.6l48.3,133h-43.3l-7.4-23.8h-42l-7.4,23.8h-42.2ZM3204.9,80.9h25.5l-12.5-38-12.9,38Z"/>
    <path class="st17" d="M3315.1,136.4V3.4h38.4v49.2l38.6-49.2h48.1l-49.6,61.8,55.3,71.2h-49.2l-31.3-42.4-11.8,12.7v29.6h-38.4Z"/>
    <path class="st10" d="M3492.8,136.4V38.4h-34.2V3.4h107v35h-34.2v98h-38.6Z"/>
  </g>
</svg>