<svg width="20" height="18" viewBox="0 0 20 18" fill="none" xmlns="http://www.w3.org/2000/svg">
<path fill-rule="evenodd" clip-rule="evenodd" d="M6.03522 6.05207C4.39147 6.83196 2.70259 7.63333 1.15822 8.55774C0.351808 9.19937 1.42358 9.65325 2.42911 10.079C2.58896 10.1467 2.7471 10.2136 2.89581 10.2805C3.01956 10.3219 3.14536 10.3654 3.27287 10.4095C4.3912 10.7967 5.63813 11.2284 6.72384 10.579C8.50734 9.46565 10.1904 8.17853 11.8722 6.89237C12.4232 6.47095 12.9741 6.04969 13.5283 5.63467C13.5543 5.61661 13.5835 5.59596 13.6156 5.57345C14.0877 5.24082 15.1496 4.49286 14.7568 5.52352C13.828 6.62727 12.8332 7.60428 11.833 8.58671C11.1589 9.24878 10.4823 9.91329 9.82183 10.6206C9.24663 11.1285 8.64928 12.1499 9.29339 12.8611C10.777 13.9897 12.2837 15.0909 13.7895 16.1916C14.2795 16.5497 14.7696 16.9078 15.2585 17.2668C16.0873 17.9858 17.3826 17.4042 17.5648 16.2806C17.6458 15.7637 17.7272 15.2469 17.8085 14.73C18.2581 11.8735 18.7079 9.01593 19.1052 6.15014C19.1592 5.70057 19.2204 5.25107 19.2816 4.80135C19.4301 3.71133 19.5787 2.61998 19.6251 1.5241C19.5055 0.430443 18.2852 0.670943 17.6062 0.916867C14.1157 2.36016 10.6602 3.91045 7.2183 5.48808C6.82838 5.67575 6.43314 5.86328 6.03522 6.05207Z" fill="white"/>
</svg>
